<svg t="1718433643307" class="icon" viewBox="0 0 1024 1024" version="1.1" xmlns="http://www.w3.org/2000/svg"
	p-id="32681" xmlns:xlink="http://www.w3.org/1999/xlink" width="200" height="200">
	<g>
		<path
			d="M676.38303 637.827879c-93.090909 0-186.181818-76.179394-186.181818-169.270303 0-90.763636 52.208485-185.018182 142.118788-188.586667-43.364848-29.246061-59.42303-26.14303-114.269091-26.065454-153.289697 0-280.979394 126.603636-279.272727 279.970909 1.706667 150.807273 110.855758 265.619394 262.20606 265.619394 115.432727 0 219.927273-65.086061 262.438788-164.383031a12.024242 12.024242 0 0 0-17.066666-15.049697 139.636364 139.636364 0 0 1-69.973334 17.764849z"
			fill="#FFDD33" p-id="32682"></path>
		<path
			d="M356.848485 500.829091a722.695758 722.695758 0 0 0 135.524848-7.757576 139.636364 139.636364 0 0 1-2.249697-24.901818c0-90.763636 52.208485-185.018182 142.118788-188.586667-44.140606-29.789091-60.043636-26.065455-117.216969-26.065454a276.402424 276.402424 0 0 0-272.29091 230.322424A757.76 757.76 0 0 0 356.848485 500.829091z"
			fill="#FF4A8B" p-id="32683"></path>
		<path
			d="M504.242424 247.466667a270.584242 270.584242 0 0 1 114.812121 25.289697A190.991515 190.991515 0 0 0 481.978182 470.109091 191.844848 191.844848 0 0 0 653.963636 645.818182c6.050909 0.54303 12.179394 0.853333 18.152728 0.853333A189.207273 189.207273 0 0 0 753.415758 628.363636 271.515152 271.515152 0 1 1 504.242424 247.466667m0-15.515152a287.030303 287.030303 0 1 0 264.998788 398.894546 14.041212 14.041212 0 0 0-12.877576-19.471516 13.730909 13.730909 0 0 0-6.361212 1.551516 174.933333 174.933333 0 0 1-77.575757 18.230303c-5.507879 0-11.093333 0-16.756364-0.775758a175.166061 175.166061 0 0 1 9.69697-349.090909A285.944242 285.944242 0 0 0 504.242424 231.951515z"
			fill="#352635" p-id="32684"></path>
		<path
			d="M656.446061 497.027879H607.418182a6.981818 6.981818 0 0 1-4.964849-11.946667l40.339394-40.339394h-24.979394a6.981818 6.981818 0 0 1-6.981818-6.981818 6.981818 6.981818 0 0 1 6.981818-7.059394H659.393939a7.059394 7.059394 0 0 1 4.964849 12.024242l-40.339394 40.339394h32.116364a6.981818 6.981818 0 0 1 7.059394 6.981819 6.981818 6.981818 0 0 1-6.749091 6.981818zM790.49697 335.592727H713.69697a7.059394 7.059394 0 0 1-4.964849-11.946666l72.145455-72.067879h-48.484849a7.059394 7.059394 0 0 1-6.981818-7.059394 6.981818 6.981818 0 0 1 6.981818-6.981818h67.335758a6.981818 6.981818 0 0 1 4.964848 11.946666l-72.067878 72.145455h57.871515a6.981818 6.981818 0 0 1 6.981818 6.981818 6.981818 6.981818 0 0 1-6.981818 6.981818z"
			fill="#352635" p-id="32685"></path>
		<path
			d="M625.726061 321.861818a48.329697 48.329697 0 1 1 48.252121-48.329697 48.407273 48.407273 0 0 1-48.252121 48.329697z"
			fill="#38EBC4" p-id="32686"></path>
		<path
			d="M625.726061 232.727273a40.572121 40.572121 0 1 1-40.572122 40.572121A40.572121 40.572121 0 0 1 625.726061 232.727273m0-15.515152a56.087273 56.087273 0 1 0 56.009697 56.087273A56.087273 56.087273 0 0 0 625.726061 217.212121zM414.952727 515.10303c-7.757576 0-16.601212 0-26.065454-0.698182-99.374545-5.352727-161.512727-31.495758-164.150303-32.581818l6.128485-14.273939c0.620606 0 62.060606 26.14303 158.797575 31.030303 86.109091 4.654545 95.185455-14.273939 95.263031-14.429091a2.172121 2.172121 0 0 0 0 0.853333l15.515151 2.404849c-1.473939 7.13697-11.015758 27.694545-85.488485 27.694545zM309.139394 596.790303a42.046061 42.046061 0 0 1-40.029091-29.323636 9.69697 9.69697 0 0 1 9.231515-12.722425 9.541818 9.541818 0 0 1 9.15394 6.59394 22.652121 22.652121 0 0 0 43.364848 0 9.464242 9.464242 0 0 1 9.153939-6.59394A9.774545 9.774545 0 0 1 349.090909 567.466667a42.123636 42.123636 0 0 1-39.951515 29.323636zM423.486061 596.790303a42.046061 42.046061 0 0 1-40.029091-29.323636 9.69697 9.69697 0 0 1 9.231515-12.722425 9.541818 9.541818 0 0 1 9.153939 6.59394 22.652121 22.652121 0 0 0 43.364849 0 9.464242 9.464242 0 0 1 9.153939-6.59394 9.774545 9.774545 0 0 1 9.231515 12.722425 42.123636 42.123636 0 0 1-40.106666 29.323636z"
			fill="#352635" p-id="32687"></path>
			
			<!-- <animateTransform attributeName="transform" attributeType="XML" type="rotate" from="0 512 512"
				to="360 512 512" dur="1s" repeatCount="indefinite" /> -->
		
	</g>

</svg>