<?xml version="1.0" encoding="utf-8"?>
<svg viewBox="116.7911 106.8421 293.0501 192.2872" xmlns="http://www.w3.org/2000/svg">
  <path style="fill:none; stroke: rgb(0, 0, 0);" d="M 144.531 133.263 C 148.418 129.377 153.145 125.251 157.151 121.244 C 159.155 119.241 164.596 122.029 167.368 120.643 C 173.792 117.431 180.742 114.582 187.8 112.23 C 190.505 111.328 194.111 113.131 196.815 112.23 C 197.683 111.94 197.142 109.207 198.017 108.624 C 201.063 106.593 212.723 108.624 216.647 108.624 C 234.075 108.624 251.502 108.624 268.93 108.624 C 280.369 108.624 304.034 104.24 314.002 109.225 C 318.49 111.468 326.342 106.981 330.829 109.225 C 344.413 116.016 364.314 106.651 376.502 118.84 C 397.945 140.283 409.555 163.863 409.555 197.566 C 409.555 204.996 410.902 215.907 407.752 222.206 C 407.038 223.634 408.404 226.962 407.151 228.215 C 403.564 231.803 405.233 240.951 401.743 244.441 C 395.175 251.009 390.393 262.367 385.517 269.681 C 365.592 299.569 325 299.129 288.762 299.129 C 278.959 299.129 269.743 297.833 259.916 296.124 C 256.059 295.453 244.381 295.613 241.286 292.518 C 239.944 291.176 228.157 292.703 227.464 291.316 C 225.524 287.437 218.315 286.374 214.844 282.903 C 207.649 275.708 199.402 270.466 191.406 262.47 C 186.535 257.599 177.064 252.415 173.978 246.244 C 173.303 244.893 168.571 243.242 167.969 242.037 C 164.852 235.803 151.122 228.186 147.536 222.806 C 143.098 216.149 137.147 210.615 132.512 205.98 C 128.988 202.455 128.173 195.631 124.7 192.157 C 122.075 189.533 123.2 181.644 120.493 178.936 C 117.435 175.879 115.757 160.691 117.488 155.499 C 122.502 140.456 135.327 138.861 144.531 129.657"/>
</svg>