<svg t="1718433428364" class="icon" viewBox="0 0 2001 1024" version="1.1" xmlns="http://www.w3.org/2000/svg" p-id="9984"
	xmlns:xlink="http://www.w3.org/1999/xlink" width="2001" height="1024">
	<g>
		<path
			d="M20.753433 1023.896233A227.042554 227.042554 0 0 0 166.027462 965.994156h-30.196245a215.939467 215.939467 0 0 0 290.548058 0h-29.573642a215.939467 215.939467 0 0 0 290.548058 0h-29.677409a215.939467 215.939467 0 0 0 290.548058 0h-29.573641a215.939467 215.939467 0 0 0 290.548057 0h-29.781176a226.938787 226.938787 0 0 0 145.274029 57.902077c27.08323 1.245206 26.979463-40.884262 0-41.506866a180.969933 180.969933 0 0 1-115.59662-45.657552 21.791104 21.791104 0 0 0-29.781176 0 172.357259 172.357259 0 0 1-231.19324 0 21.687337 21.687337 0 0 0-29.677409 0 172.357259 172.357259 0 0 1-231.19324 0 21.791104 21.791104 0 0 0-29.781176 0 172.357259 172.357259 0 0 1-231.19324 0 21.687337 21.687337 0 0 0-29.677409 0 172.357259 172.357259 0 0 1-231.19324 0 21.791104 21.791104 0 0 0-29.781176 0A180.451097 180.451097 0 0 1 20.753433 981.870532c-26.979463 1.141439-27.186997 43.270907 0 41.506865z"
			fill="#6969ed" p-id="9985">
			<animateTransform attributeName="transform" type="translate" from="-1300 0" to="0 0" dur="4s"
				repeatCount="indefinite" />
		</path>
		<path
			d="M20.753433 1023.896233A227.042554 227.042554 0 0 0 166.027462 965.994156h-30.196245a215.939467 215.939467 0 0 0 290.548058 0h-29.573642a215.939467 215.939467 0 0 0 290.548058 0h-29.677409a215.939467 215.939467 0 0 0 290.548058 0h-29.573641a215.939467 215.939467 0 0 0 290.548057 0h-29.781176a226.938787 226.938787 0 0 0 145.274029 57.902077c27.08323 1.245206 26.979463-40.884262 0-41.506866a180.969933 180.969933 0 0 1-115.59662-45.657552 21.791104 21.791104 0 0 0-29.781176 0 172.357259 172.357259 0 0 1-231.19324 0 21.687337 21.687337 0 0 0-29.677409 0 172.357259 172.357259 0 0 1-231.19324 0 21.791104 21.791104 0 0 0-29.781176 0 172.357259 172.357259 0 0 1-231.19324 0 21.687337 21.687337 0 0 0-29.677409 0 172.357259 172.357259 0 0 1-231.19324 0 21.791104 21.791104 0 0 0-29.781176 0A180.451097 180.451097 0 0 1 20.753433 981.870532c-26.979463 1.141439-27.186997 43.270907 0 41.506865z"
			fill="#6969ed" p-id="9985">
			<animateTransform attributeName="transform" type="translate" from="0 0" to="1300 0" dur="4s"
				repeatCount="indefinite" />
		</path>
		<path
			d="M20.753433 1023.896233A227.042554 227.042554 0 0 0 166.027462 965.994156h-30.196245a215.939467 215.939467 0 0 0 290.548058 0h-29.573642a215.939467 215.939467 0 0 0 290.548058 0h-29.677409a215.939467 215.939467 0 0 0 290.548058 0h-29.573641a215.939467 215.939467 0 0 0 290.548057 0h-29.781176a226.938787 226.938787 0 0 0 145.274029 57.902077c27.08323 1.245206 26.979463-40.884262 0-41.506866a180.969933 180.969933 0 0 1-115.59662-45.657552 21.791104 21.791104 0 0 0-29.781176 0 172.357259 172.357259 0 0 1-231.19324 0 21.687337 21.687337 0 0 0-29.677409 0 172.357259 172.357259 0 0 1-231.19324 0 21.791104 21.791104 0 0 0-29.781176 0 172.357259 172.357259 0 0 1-231.19324 0 21.687337 21.687337 0 0 0-29.677409 0 172.357259 172.357259 0 0 1-231.19324 0 21.791104 21.791104 0 0 0-29.781176 0A180.451097 180.451097 0 0 1 20.753433 981.870532c-26.979463 1.141439-27.186997 43.270907 0 41.506865z"
			fill="#6969ed" p-id="9985">
			<animateTransform attributeName="transform" type="translate" from="1300 0" to="2600 0" dur="4s"
				repeatCount="indefinite" />
		</path>
	</g>
	<g>
		<path
			d="M945.526394 669.635137C946.148997 689.869733 944.281188 748.083112 944.281188 748.083112l-72.637015-5.292125V21.712968l369.722404 632.979697s-41.403098 15.461307-295.840183 14.942472z"
			fill="#92CAEE" p-id="9987"></path>
		<path d="M941.479475 742.479685V142.290412L871.02157 21.712968v720.766717L944.281188 748.083112v-5.084591z"
			fill="#5DA1D3" p-id="9988"></path>
		<path
			d="M924.46166 669.635137c0 26.045558-0.622603 51.883582-1.556508 78.136674l20.753433-20.753433-72.637015-5.188358 20.753433 20.753433V21.712968l-38.912686 10.376716 369.722403 632.979697 12.244526-31.130149a203.798709 203.798709 0 0 1-50.11954 7.263702c-79.485647 7.159934-159.697665 7.056167-239.494614 7.056167-27.08323 0-27.08323 41.506865 0 41.506865 81.976059 0 164.678488 0 246.343247-7.575003a235.24016 235.24016 0 0 0 54.47776-8.197606 21.376036 21.376036 0 0 0 12.555827-31.130149L889.180824 11.336251a20.753433 20.753433 0 0 0-39.223988 10.376717v720.766717a21.58357 21.58357 0 0 0 20.753433 20.753433L944.281188 768.836545a21.376036 21.376036 0 0 0 20.753433-20.753433c1.037672-26.045558 1.971576-51.883582 1.660274-78.136674s-42.544537-27.498298-42.233235-0.311301z"
			fill="#49494A" p-id="9989"></path>
		<path
			d="M922.593851 314.128834v102.937027c0 27.08323 42.129468 27.08323 42.129468 0v-102.937027c0-27.08323-42.129468-27.08323-42.129468 0zM943.658585 283.413754c27.08323 0 27.186997-42.129468 0-42.129468s-27.08323 42.129468 0 42.129468zM1147.664828 312.261025L1013.182585 96.425325c-14.319869-22.828776-50.742143-2.075343-36.422275 21.272269L1111.346321 333.014458c14.319869 22.932543 50.742143 1.764042 36.318507-20.753433z"
			fill="#49494A" p-id="9990"></path>
		<path
			d="M1276.336111 511.701514l-99.824011-154.509307c-14.63117-22.725009-51.053444-1.660275-36.318507 20.753433l99.824011 154.613074c14.63117 22.621242 51.053444 1.556507 36.318507-21.272269zM1290.448445 598.450862c27.08323 0 27.08323-42.129468 0-42.129468s-27.186997 42.129468 0 42.129468z"
			fill="#49494A" p-id="9991"></path>
		<path
			d="M492.79026 599.177233c79.900716 55.100364 324.272386 51.883582 324.272385 51.883581s-92.664077-222.684333 0-420.464546c-135.934984 37.148645-303.62272 232.230912-324.272385 368.580965z"
			fill="#F3D24F" p-id="9992"></path>
		<path
			d="M794.752705 289.743551a408.220021 408.220021 0 0 1 22.30994-59.25105c-135.934984 37.252412-303.62272 232.334679-324.272385 368.684732a174.640136 174.640136 0 0 0 43.685975 20.753432C560.342683 505.26795 678.844784 355.6357 794.752705 289.743551z"
			fill="#BFAD65" p-id="9993"></path>
		<path
			d="M748.368783 670.776575c22.932543 0.72637 45.761319 1.45274 68.693862 1.245206 12.244525 0 25.630489-13.593498 20.753433-26.668161-51.883582-125.869569-57.175707-279.341204-2.075343-404.173102 6.848633-15.565075-4.565755-36.94111-23.762681-31.130149-59.147283 18.366788-108.851755 52.609952-155.650745 92.664077-20.753433 17.640418 9.339045 47.317827 29.781176 29.781176 41.506865-35.384603 84.674005-65.684615 136.868889-81.872292L799.007159 219.90825c-59.562352 134.897313-58.109612 299.575801-2.17911 436.652224l20.753432-26.668161c-22.932543 0-45.761319 0-68.693862-1.245206-27.08323-0.933904-26.979463 41.506865 0 42.129468zM607.556742 350.654876c-61.533928 69.108931-118.190799 150.151086-134.897312 242.91893a22.102406 22.102406 0 0 0 9.650346 23.76268c56.138035 34.450698 125.662035 41.506865 189.790142 48.251731 26.979463 2.801713 26.771928-39.327755 0-41.506865-56.241803-5.914728-119.228471-12.244525-168.517873-42.544537l9.650346 23.76268c15.668842-85.711677 67.344889-160.424035 124.520596-224.344607 17.951719-20.13083-11.621922-50.015773-29.781176-29.781176z"
			fill="#49494A" p-id="9994"></path>
		<path
			d="M897.170896 840.643422c-55.930501 0-112.172304-2.697946-167.272668-8.093839l-20.753433-1.971576c-18.470555-1.764042-18.885624-1.867809-27.290764-3.113015l-27.913367-4.150686-7.886304-1.037672-123.482925-145.274029 50.949678 11.103087a2013.082972 2013.082972 0 0 0 427.624481 43.89351c17.951719 0 36.318507 0 54.373993-0.622603a1943.455205 1943.455205 0 0 0 449.104284-61.222627s-152.849032 170.48945-607.452975 170.48945z"
			fill="#0F7888" p-id="9995"></path>
		<path
			d="M1355.40669 724.527966c51.883582-9.754113 103.767164-20.753433 154.820608-34.139397l-20.753433-35.177068c-93.390447 103.040793-273.115174 137.387724-402.512827 153.367868a1573.213966 1573.213966 0 0 1-246.135712 10.376716c-56.449337-1.867809-126.077104 0.622603-181.177468-15.668842-11.829457-3.528084 8.40514 7.990072-2.594179 0a86.126746 86.126746 0 0 1-10.376716-12.452059l-40.572961-47.732896-68.175026-81.145921-20.753433 35.177068c253.399413 55.204131 513.958761 73.985988 771.612628 36.733576 26.668161-3.839385 15.253773-44.308579-11.206854-40.572961-249.663795 36.110973-503.789579 16.706513-749.19892-36.733576a20.753433 20.753433 0 0 0-20.753433 35.177068l74.816125 88.202089c17.847952 20.753433 35.903439 53.025021 62.260298 63.090436 49.704471 19.40446 126.595939 14.838704 177.649384 17.121582a1624.786246 1624.786246 0 0 0 272.388804-10.376717c137.491492-17.536651 325.102523-55.204131 424.719-164.782255a20.753433 20.753433 0 0 0-20.753432-35.177069c-51.157212 13.385964-102.937026 24.385283-154.924376 34.139397-26.564394 4.980824-15.253773 45.450018 11.206854 40.572961z"
			fill="#49494A" p-id="9996"></path>
		<path
			d="M923.527755 574.895716v102.833259c0 27.08323 41.506865 27.186997 41.506866 0v-102.833259c0-27.08323-41.506865-27.186997-41.506866 0z"
			fill="#49494A" p-id="9997"></path>

<animateTransform
        attributeName="transform"
        attributeType="XML"
        type="translate"
        values="0 -30; 200 70; 0 50;-450 120 ;0 0;350 60;0 -30"
        dur="8s"
        repeatCount="indefinite"
      />

	</g>

</svg>