<?xml version="1.0" encoding="UTF-8" standalone="no"?>
<!-- Created with Inkscape (http://www.inkscape.org/) -->

<svg
   width="17.293348mm"
   height="2.8478317mm"
   viewBox="0 0 17.293348 2.8478317"
   version="1.1"
   id="svg1"
   inkscape:export-filename="位图.svg"
   inkscape:export-xdpi="96"
   inkscape:export-ydpi="96"
   xmlns:inkscape="http://www.inkscape.org/namespaces/inkscape"
   xmlns:sodipodi="http://sodipodi.sourceforge.net/DTD/sodipodi-0.dtd"
   xmlns="http://www.w3.org/2000/svg"
   xmlns:svg="http://www.w3.org/2000/svg">
  <sodipodi:namedview
     id="namedview1"
     pagecolor="#ffffff"
     bordercolor="#000000"
     borderopacity="0.25"
     inkscape:showpageshadow="2"
     inkscape:pageopacity="0.0"
     inkscape:pagecheckerboard="0"
     inkscape:deskcolor="#d1d1d1"
     inkscape:document-units="mm"
     inkscape:export-bgcolor="#ffffff7d" />
  <defs
     id="defs1" />
  <g
     inkscape:label="图层 1"
     inkscape:groupmode="layer"
     id="layer1"
     transform="translate(-46.311807,-92.625676)">
    <path
       d="m 47.89613,92.710945 0.03721,0.02946 0.05736,-0.0062 0.06356,0.07286 v 0.02791 l 0.03876,0.03566 0.0217,0.07286 -0.0093,0.04496 h 0.0093 l -0.0217,0.243396 -0.03876,0.04186 -0.06356,0.031 -0.07286,0.09302 -0.06356,0.0155 -0.05736,0.05736 -0.07906,-0.03876 -0.0217,-0.05736 0.03411,-0.04031 -0.0217,-0.05116 0.03721,-0.07286 q -0.0093,-0.06511 -0.0217,-0.07286 l -0.07906,0.0093 -0.05736,-0.0217 -0.09457,0.0217 0.0093,0.03566 -0.06666,0.05581 h -0.02945 l -0.300757,0.187585 -0.05116,0.05116 -0.03876,0.0062 -0.0124,0.02946 -0.07906,0.0217 0.0062,0.0155 -0.05736,0.0217 -0.130225,0.09922 -0.0217,0.0217 0.03101,0.02015 q 0.01395,0.0093 0.04186,0.05271 l 0.03566,-0.0217 0.0217,0.02791 0.05736,-0.0217 0.04341,0.0217 0.08062,-0.0062 0.249597,0.0062 0.02325,0.02946 h 0.06666 l 0.05116,0.03721 0.09147,-0.03101 h 0.03411 l 0.03256,0.0217 h 0.04186 l 0.02791,0.02326 h 0.04496 l 0.0217,0.0217 0.0248,0.0047 q 0.01085,0.0016 0.04496,0.03101 h 0.0279 q 0.02636,-0.0155 0.06046,-0.02326 l 0.04186,0.03876 0.02171,0.04031 0.124023,0.08062 0.120923,0.106971 -0.02791,0.05116 0.04961,0.04496 -0.03411,0.10697 -0.0093,0.102319 -0.03256,0.05271 q -0.0155,0.02635 -0.03721,0.08992 l -0.06666,0.03566 -0.01395,0.03721 -0.26665,0.181384 -0.04961,-0.0093 -0.0062,0.02791 -0.289904,0.09612 -0.04341,0.03411 h -0.08682 l -0.0217,0.0217 h -0.04496 l -0.0186,0.02325 -0.04496,-0.0155 -0.124023,0.04341 -0.0062,-0.0062 -0.05736,0.0062 -0.100769,0.02326 -0.172083,-0.01705 -0.07906,0.02326 -0.100769,-0.02326 -0.02015,-0.0015 -0.02015,-0.0016 -0.01705,-0.0016 q -0.0062,-0.0016 -0.03101,-0.01705 -0.02325,-0.0155 -0.04186,-0.02791 l -0.05736,-0.08061 0.0062,-0.10697 0.02791,-0.0062 0.02946,-0.02945 0.04341,-0.0217 q 0.02636,-0.03256 0.07286,-0.06356 h 0.165881 v 0.05116 l -0.0062,0.0186 0.0217,0.0217 -0.05116,0.04806 q -0.0093,0.0093 -0.02791,0.05426 l 0.0124,0.02791 0.07906,0.03566 0.02325,-0.03566 0.05736,-0.0124 0.07906,0.0186 0.09457,0.0093 0.05736,-0.02791 h 0.05116 l 0.06976,-0.0155 0.02791,-0.0155 h 0.05736 l 0.03876,-0.0078 0.133325,-0.05271 0.04341,-0.0093 0.03411,-0.02015 q 0.01395,-0.0093 0.08682,-0.0217 l 0.02325,-0.0217 0.0217,0.0062 0.130225,-0.07286 0.03411,-0.07131 0.06666,-0.0186 -0.0031,-0.04031 0.02635,-0.03566 -0.0124,-0.0124 0.03411,-0.08837 -0.0062,-0.03566 0.0186,-0.05116 -0.03721,-0.07286 0.0155,-0.05736 -0.03876,-0.08527 -0.03721,-0.0155 q -0.0217,-0.04806 -0.05116,-0.07286 l -0.07906,0.0155 -0.02481,-0.05736 q -0.0047,-0.0093 -0.03876,-0.03876 -0.03566,-0.0062 -0.07906,-0.02791 l -0.05116,0.05116 -0.0217,-0.02326 -0.08062,-0.0186 -0.04341,-0.04496 -0.02325,0.02325 -0.04031,-0.0155 -0.02946,0.0279 -0.06666,-0.0279 -0.02791,0.04341 -0.06976,-0.03411 -0.0093,0.03411 h -0.05736 l -0.0124,-0.0217 -0.06666,-0.0124 -0.05736,0.02791 -0.06821,-0.0078 q -0.01085,-0.0016 -0.05581,-0.02945 l -0.03566,0.0155 -0.02791,-0.0155 -0.0062,0.0279 -0.08837,0.0093 -0.0078,-0.0155 -0.03411,0.0062 -0.05736,-0.05116 -0.0155,-0.03876 q -0.0062,-0.0186 -0.03566,-0.04651 0.03721,-0.02946 0.06356,-0.05736 h 0.0155 l 0.02946,-0.05116 h 0.02791 l 0.03566,-0.04031 0.07906,-0.05116 0.07906,-0.07286 0.04496,-0.02946 0.05736,-0.0217 0.05116,-0.05116 0.04341,-0.0217 0.04806,-0.04186 0.07286,-0.04341 0.06666,-0.07286 0.07596,-0.04186 q 0.0186,-0.0186 0.05116,-0.02945 l 0.0093,-0.0217 0.09302,-0.06666 h 0.02791 l 0.03876,-0.04806 q 0.04806,-0.02481 0.07906,-0.04961 l 0.0062,-0.02326 0.03411,-0.0155 0.0062,-0.0124 q 0.07131,-0.05271 0.117822,-0.09612 h 0.0124 v -0.0124 h 0.02325 l 0.0062,-0.0217 0.06666,-0.0217 z m 1.536341,0.466638 q 0,0.03256 -0.05116,0.114722 v 0.02946 l -0.03411,0.07906 v 0.05116 l -0.04496,0.10697 v 0.0155 q 0,0.03566 0.02326,0.03566 l 0.04961,-0.0155 q 0.04806,0.02791 0.08062,0.02791 h 0.06976 q 0.09612,-0.0248 0.145728,-0.0248 0.05736,0 0.124023,0.0093 v 0.0093 l 0.05736,0.0062 0.05271,0.06356 -0.04961,0.06356 -0.08992,0.0124 -0.08837,0.04806 -0.03411,0.0062 q -0.01705,0.0031 -0.05116,0.02635 l -0.09612,-0.01085 q -0.0093,0.01395 -0.08527,0.01705 l -0.159681,0.0062 q -0.06976,0.04806 -0.09147,0.07286 l 0.0062,0.07906 -0.0217,0.03566 -0.0124,0.113171 -0.03876,0.05116 -0.0062,0.136426 -0.03876,0.0217 -0.0062,0.03876 0.02325,0.07906 -0.02945,0.286804 0.06356,0.246497 0.07286,-0.03101 q 0.02015,-0.04186 0.07906,-0.04186 h 0.02946 q 0.07596,-0.02481 0.114722,-0.08527 l 0.07286,-0.0217 -0.0093,-0.0078 0.0217,-0.0279 q 0.02945,-0.0217 0.03721,-0.03876 l 0.04496,-0.0155 0.0124,-0.02791 q 0.02325,0 0.02325,-0.02326 0.02791,-0.04806 0.136426,-0.07906 0.0217,0.01085 0.0217,0.02946 0,0.0279 -0.0279,0.10542 -0.02791,0.07751 -0.07286,0.11007 l -0.08682,0.06046 -0.02636,0.03566 q -0.01395,0.0217 -0.03566,0.03101 l -0.05581,0.0248 -0.04341,0.0124 -0.09302,0.08371 -0.05581,0.0062 -0.07131,0.05736 -0.02946,0.02946 q -0.0078,0.0078 -0.03256,0.01705 l -0.196887,0.07752 -0.04496,0.0062 -0.03566,0.02791 -0.07286,-0.04806 -0.0217,-0.09457 -0.02325,-0.04961 q -0.0093,-0.02325 -0.06201,-0.331763 0.0031,-0.01085 0.02791,-0.05426 v -0.05426 l 0.03876,-0.0155 0.04651,-0.130225 -0.0155,-0.04341 q 0.06511,-0.0124 0.06976,-0.0186 0.0062,-0.0062 0.0062,-0.01395 0,-0.0062 -0.0155,-0.03721 l 0.05116,-0.153479 0.0155,-0.136426 0.06976,-0.187585 q -0.0062,-0.03411 -0.04496,-0.06666 -0.03876,-0.03411 -0.07596,-0.04031 l -0.06046,0.03721 h -0.0186 q -0.04496,0 -0.06511,-0.01085 -0.0186,-0.01085 -0.02015,-0.01085 -0.01395,0 -0.03566,0.0155 -0.01395,0.03256 -0.03721,0.03256 h -0.0062 q -0.0078,0.0031 -0.02636,0.0031 -0.01705,0 -0.06046,-0.0062 -0.03101,-0.08682 -0.03101,-0.10542 0,-0.0186 0.0217,-0.06976 0.02325,-0.05116 0.04806,-0.05116 l 0.0217,0.0031 0.04496,-0.0124 q 0.04341,-0.0124 0.06046,-0.0124 h 0.0093 q 0.0062,0.0031 0.0186,0.0031 0.0155,0 0.02636,-0.0062 0.0124,-0.0062 0.02791,-0.0062 0.02015,0 0.0279,0.0062 l 0.05736,-0.02946 h 0.01705 q 0.02325,0 0.04186,-0.0062 0.0186,-0.0062 0.04651,-0.06356 l 0.03411,0.0062 q 0.0047,-0.03101 0.03876,-0.09147 0.02791,-0.0015 0.02791,-0.04496 v -0.0186 l -0.0093,0.0124 q 0.02325,-0.06046 0.03876,-0.09147 l -0.0093,-0.06046 0.06666,-0.127124 q 0.0279,-0.04186 0.07286,-0.05116 0.03101,-0.04651 0.103869,-0.09147 0.07286,-0.04496 0.09612,-0.04496 0.05426,0 0.06666,0.04806 l -0.04496,0.08837 z m 1.668115,0.299207 q 0.01085,-0.0031 0.06046,0.0031 0.04961,0.0062 0.06356,0.0217 l 0.05271,-0.0124 0.02945,0.0031 0.0217,0.04186 -0.0031,0.03101 q -0.03101,0.0248 -0.04186,0.05426 h -0.0155 l -0.01705,0.0186 q -0.0078,0.0078 -0.06511,0.02636 l -0.0031,0.288355 0.0248,0.148828 0.0031,0.153479 0.02325,0.187585 0.09767,0.266651 q 0.02635,0.02945 0.03566,0.04651 0.07751,-0.04341 0.09767,-0.04341 0.06356,-0.07286 0.08216,-0.07596 v -0.01705 l 0.175184,-0.148828 0.0031,-0.02791 q 0.01705,-0.0031 0.06666,-0.06046 l 0.05736,0.0124 0.03101,0.06976 -0.0124,0.06046 -0.03101,-0.0124 -0.0155,0.03411 h -0.02945 q -0.01705,0.04651 -0.05116,0.07596 v 0.01705 l -0.08527,0.07906 -0.0155,0.04031 q -0.02946,0.02015 -0.09922,0.05426 l -0.0124,0.02326 -0.0031,-0.0078 -0.0186,0.03256 -0.04186,0.0124 -0.0062,0.0217 H 51.437 l 0.0093,0.02325 -0.0248,0.04806 -0.02325,0.0062 q 0.0031,0.0248 -0.05116,0.09147 l -0.07286,0.0031 -0.0155,0.04496 -0.04496,0.0124 Q 51.16261,95.11075 51.1316,95.06114 l -0.10387,-0.168982 -0.09922,-0.221692 0.0093,-0.08216 -0.0217,-0.07286 0.0155,-0.0031 q -0.04496,-0.08992 -0.04496,-0.136426 l 0.0078,-0.05736 -0.04806,-0.02946 -0.03256,0.02015 v -0.0078 l -0.0155,0.0078 -0.04186,0.10697 -0.0217,-0.0093 -0.0062,0.0217 -0.0155,-0.0062 v 0.01395 h -0.0062 q -0.0016,0.0093 -0.04496,0.07906 l -0.0124,-0.0062 -0.0093,0.06666 -0.03256,0.01705 q -0.03256,0.01705 -0.04186,0.04031 l -0.0124,0.03101 0.01395,0.0186 -0.03566,0.0124 -0.0155,0.06356 -0.02636,0.01395 0.0078,0.0124 q -0.03721,0.02791 -0.06046,0.03721 l -0.01395,0.02325 -0.0124,-0.01705 -0.0217,0.05426 h -0.0186 l -0.02636,0.08992 -0.0279,0.0093 -0.0031,0.04651 h -0.04496 l -0.04496,0.102319 -0.0217,0.0155 h -0.0186 l -0.0062,0.02946 -0.09922,0.03721 -0.10387,0.0031 -0.04496,-0.294556 0.0186,-0.03876 0.0047,-0.03101 q 0.0016,-0.0124 0.03721,-0.09302 l -0.0062,-0.0217 q 0.02791,-0.06356 0.03721,-0.07596 l -0.0124,-0.0062 0.02945,-0.07596 0.0016,-0.02945 q 0.0016,-0.0124 0.02325,-0.05736 -0.0124,-0.07441 -0.02481,-0.08527 l 0.0124,-0.0217 0.04031,0.0062 q 0.03566,-0.04806 0.04496,-0.05116 l 0.0093,-0.02791 h 0.0062 l -0.02171,-0.03256 0.0186,-0.08217 0.0124,0.0062 q 0.0186,-0.04806 0.02326,-0.04806 l -0.0062,-0.04031 0.04341,-0.08062 v -0.0217 l -0.0093,-0.0186 0.06356,-0.136426 0.07286,-0.09922 q 0.03721,-0.03256 0.06356,-0.07286 l 0.05426,-0.0217 0.07286,-0.07596 0.06976,-0.04186 h 0.04186 l 0.03411,-0.0093 h 0.04806 l 0.0217,-0.03566 0.04496,0.0031 h 0.04496 v -0.0124 q 0.0186,0.0015 0.04031,0.0155 l 0.04806,-0.0186 0.03566,0.0093 0.0093,-0.0124 0.03721,0.0124 z m -0.399975,0.244946 -0.03876,0.0062 -0.04806,-0.0031 -0.0155,0.02791 v 0.02325 q -0.0248,0.0124 -0.05426,0.0217 l -0.0279,0.06976 q -0.0217,0.09302 -0.02636,0.09457 h -0.0155 l -0.0217,0.05116 -0.01085,0.04341 q -0.0047,0.02015 -0.03101,0.03256 l -0.0155,0.05426 -0.02481,0.04651 q -0.01395,0.02635 -0.01395,0.05581 v 0.0124 l -0.0155,-0.0124 v 0.02481 h -0.0093 l 0.0031,0.0155 -0.0124,0.02635 -0.0186,0.08217 -0.03256,0.06666 -0.0062,0.09457 -0.0093,0.01395 h -0.0062 l -0.0062,0.02791 0.0124,0.0124 -0.0155,0.05736 h -0.0062 l 0.0062,0.0186 h -0.02326 l 0.0031,0.114722 0.01395,0.05426 h 0.0062 l 0.03411,-0.03256 0.08992,-0.127124 0.16123,-0.21239 0.04806,-0.05116 0.10697,-0.173632 0.111621,-0.148829 0.0093,-0.03256 -0.02171,-0.0279 0.04031,-0.06976 0.0093,-0.05271 q 0.0016,-0.0078 0.02636,-0.04031 l 0.0031,-0.124023 -0.04186,-0.0031 h -0.03411 l -0.04496,-0.03101 -0.0093,0.0155 z m 1.871203,-0.150378 q 0.03721,0.01705 0.04186,0.05116 -0.04186,0.04496 -0.04186,0.130225 v 0.02325 q -0.0155,0.0155 -0.0155,0.03101 0,0.01705 0.0062,0.02481 h 0.0093 l -0.0093,0.04496 -0.0279,0.0062 -0.0124,0.05116 h -0.0093 q 0.0047,0.02635 0.0217,0.03411 0.03876,-0.0031 0.124024,-0.09767 l 0.0062,0.0062 0.15813,-0.117822 0.02946,-0.0062 0.07286,-0.04031 0.05736,-0.01705 q 0.05426,-0.04651 0.170532,-0.04961 0.05271,0.03101 0.06976,0.03101 0.02015,0 0.02015,0.0124 0,0.01085 -0.01395,0.06356 l -0.06666,0.03876 -0.03721,0.04651 -0.108521,0.05116 -0.04031,-0.0186 h -0.02946 v 0.0062 q -0.111621,0.04341 -0.203088,0.06356 -0.04341,0.08527 -0.159681,0.223243 -0.116271,0.137976 -0.119372,0.209289 l -0.0093,0.224793 -0.06046,0.100769 0.0062,0.141076 q -0.0062,0.02481 -0.0217,0.05271 -0.01395,0.02635 -0.02015,0.04651 -0.0062,0.02015 -0.04341,0.07752 l -0.0279,0.0078 q -0.01085,0.0016 -0.08372,0.05891 h -0.07906 l -0.03566,0.0124 -0.05116,-0.04961 q 0,-0.04496 0.03256,-0.111621 0.03256,-0.06666 0.03721,-0.09767 0.0217,-0.153479 0.08062,-0.181384 l 0.0155,-0.04496 -0.0062,-0.02791 0.0124,-0.02326 -0.04186,-0.06976 v -0.0217 l -0.0093,-0.136426 q 0.0217,-0.0155 0.02946,-0.0155 0.0124,0 0.0279,0.0155 l 0.06046,-0.07906 -0.0093,-0.05736 0.0155,-0.06666 -0.03721,-0.02946 v -0.15813 l -0.05736,0.04496 h -0.03566 l -0.05116,0.03411 -0.04961,-0.0124 -0.05116,0.0062 q -0.04186,0 -0.04186,-0.02791 0,-0.04651 0.04651,-0.110071 0.04651,-0.06356 0.141077,-0.116272 v -0.0062 l 0.04186,-0.0062 q 0.0248,-0.04496 0.05736,-0.04496 0.0186,-0.0078 0.04186,-0.02945 0.02325,-0.02326 0.103869,-0.06201 l 0.04031,0.0217 0.03256,-0.0155 0.04806,-0.0124 z m 1.95647,-0.945679 0.05116,0.0062 0.0062,0.0093 h 0.06976 l 0.151929,0.0062 v 0.02946 l 0.0062,-0.0062 0.06046,0.0062 0.08682,0.05116 h 0.0217 l 0.0062,0.0217 h 0.04496 l 0.0062,0.0124 0.187585,0.03876 0.113171,0.02791 0.0062,0.02326 0.08061,0.0279 0.01085,0.0093 q 0.0047,0.0031 0.06821,0.0186 0.0186,0.02946 0.06046,0.05116 h 0.0124 v 0.0124 l 0.0155,-0.0062 0.0062,0.02326 h 0.0124 q 0.01395,0.01705 0.04496,0.04031 l 0.05116,-0.0093 0.0062,0.02481 h 0.0217 v 0.02326 l 0.02946,0.0124 0.0217,0.03876 0.05116,0.0062 v 0.0124 l -0.0217,0.0093 0.0124,0.06356 0.09457,0.03566 0.0217,0.02791 0.02945,-0.0062 0.0124,0.04496 0.04496,0.0217 0.0155,0.05736 0.09922,0.100769 0.05891,0.235644 -0.0155,0.03101 v 0.05736 l -0.03411,0.05116 -0.02946,0.187585 -0.06046,0.07906 -0.0062,0.02791 -0.05116,0.09922 -0.0217,0.0155 -0.0062,0.0155 q -0.06666,0.05581 -0.10232,0.09922 v -0.0124 l -0.148828,0.142627 -0.04341,0.0217 -0.05116,0.04496 q -0.05736,0.0279 -0.06356,0.03411 h -0.0155 q -0.08062,0.05116 -0.08682,0.05736 v 0.0062 l -0.09457,0.06046 -0.05736,0.0062 -0.0062,0.0124 q -0.03566,0.01395 -0.06356,0.04496 l -0.0093,-0.0155 -0.07906,0.03876 v 0.0062 h -0.02015 l -0.0093,0.0155 q -0.03876,0.0047 -0.05116,0.0186 h -0.0062 l -0.170532,0.09612 -0.01705,-0.0078 -0.322461,0.144177 -0.0078,0.0155 -0.06666,0.0186 h -0.03411 l -0.04496,0.03876 -0.08527,0.02791 -0.10852,0.07906 q -0.07441,0.06821 -0.08527,0.07286 v 0.02945 l -0.05116,0.0186 -0.02791,0.04496 -0.117822,0.0217 h -0.02791 q -0.04031,-0.04961 -0.04186,-0.05736 l 0.02791,-0.04341 -0.0217,-0.114722 0.0217,-0.06666 0.05116,-0.0217 0.215491,-0.127124 v 0.0124 l 0.02325,0.0062 0.0062,-0.04186 0.0217,-0.0155 0.0062,-0.03411 0.0062,0.0062 0.07441,-0.217041 0.0062,-0.09147 0.02791,-0.09457 v -0.289905 l 0.0155,-0.0217 0.02325,-0.279053 0.07906,-0.396875 -0.03876,-0.05116 0.02945,-0.07906 -0.0062,-0.08682 -0.06356,-0.0062 v 0.0124 h -0.05116 v 0.01705 h -0.02946 l -0.0217,0.0279 h -0.05736 q -0.0047,-0.01085 -0.04341,-0.05116 l 0.0155,-0.0217 q 0.04806,-0.02635 0.05736,-0.04186 l 0.0062,0.01395 0.0062,-0.02325 v -0.0062 l 0.0217,-0.0217 h 0.0062 l 0.05116,-0.03566 q 0.0093,-0.0062 0.0279,-0.04341 l 0.09612,-0.04186 -0.0062,-0.07906 -0.03876,-0.02326 -0.0217,-0.07286 -0.05736,-0.02791 -0.06356,0.0155 -0.02791,-0.03721 0.0217,-0.03566 0.127125,-0.02791 -0.02946,-0.09612 h -0.0186 l 0.0062,-0.02791 z m 0.330212,0.396875 v 0.0062 l -0.04496,0.02946 -0.0124,0.07286 0.0217,0.0155 -0.03721,0.09147 -0.04186,0.341064 -0.0217,0.10697 -0.04496,0.09302 -0.0124,0.0155 0.0217,0.06356 h -0.0155 l -0.0279,0.209289 -0.06356,0.187586 -0.04496,0.310059 -0.0217,0.04186 -0.06356,0.218592 -0.0093,0.0078 -0.06976,0.142627 0.0062,0.03721 0.221692,-0.06046 0.05736,-0.02791 0.130225,-0.05116 0.03721,0.0155 0.02015,-0.03411 h 0.06046 l -0.0093,-0.0093 0.0279,-0.03566 0.07286,-0.0217 h 0.0155 l 0.06356,-0.04186 h 0.02325 l -0.0062,-0.0093 0.170532,-0.08527 0.02946,-0.0062 0.0217,-0.02326 h 0.0062 l 0.02791,-0.0062 0.02945,-0.03721 0.0155,0.0093 0.124023,-0.06666 v -0.0124 h 0.0062 v -0.01085 l 0.08527,-0.04961 0.21084,-0.178284 0.04961,-0.05736 0.120923,-0.196887 0.0217,-0.0217 -0.0062,-0.08527 -0.06356,-0.193787 -0.03721,-0.05116 v -0.04496 l -0.05116,-0.04806 -0.0217,-0.04961 -0.120923,-0.102319 -0.02945,-0.03411 -0.04341,-0.01085 -0.02325,-0.04031 -0.08527,-0.02946 -0.05736,-0.04961 -0.09457,-0.06046 -0.06976,-0.0124 -0.03876,-0.03566 -0.0186,0.0124 -0.232544,-0.08527 -0.03876,-0.01085 q -0.01705,-0.0047 -0.08372,-0.04341 z m 2.103748,0.548804 q 0.03721,0.01705 0.04186,0.05116 -0.04186,0.04496 -0.04186,0.130225 v 0.02325 q -0.0155,0.0155 -0.0155,0.03101 0,0.01705 0.0062,0.02481 h 0.0093 l -0.0093,0.04496 -0.0279,0.0062 -0.0124,0.05116 h -0.0093 q 0.0046,0.02635 0.0217,0.03411 0.03876,-0.0031 0.124023,-0.09767 l 0.0062,0.0062 0.15813,-0.117822 0.02946,-0.0062 0.07286,-0.04031 0.05736,-0.01705 q 0.05426,-0.04651 0.170532,-0.04961 0.05271,0.03101 0.06976,0.03101 0.02015,0 0.02015,0.0124 0,0.01085 -0.01395,0.06356 l -0.06666,0.03876 -0.03721,0.04651 -0.10852,0.05116 -0.04031,-0.0186 h -0.02945 v 0.0062 q -0.111622,0.04341 -0.203089,0.06356 -0.04341,0.08527 -0.15968,0.223243 -0.116272,0.137976 -0.119373,0.209289 l -0.0093,0.224793 -0.06046,0.100769 0.0062,0.141076 q -0.0062,0.02481 -0.0217,0.05271 -0.01395,0.02635 -0.02015,0.04651 -0.0062,0.02015 -0.04341,0.07752 l -0.02791,0.0078 q -0.01085,0.0016 -0.08372,0.05891 h -0.07906 l -0.03566,0.0124 -0.05116,-0.04961 q 0,-0.04496 0.03256,-0.111621 0.03256,-0.06666 0.03721,-0.09767 0.0217,-0.153479 0.08062,-0.181384 l 0.0155,-0.04496 -0.0062,-0.02791 0.0124,-0.02326 -0.04186,-0.06976 v -0.0217 l -0.0093,-0.136426 q 0.0217,-0.0155 0.02945,-0.0155 0.0124,0 0.02791,0.0155 l 0.06046,-0.07906 -0.0093,-0.05736 0.0155,-0.06666 -0.03721,-0.02946 v -0.15813 l -0.05736,0.04496 h -0.03566 l -0.05116,0.03411 -0.04961,-0.0124 -0.05116,0.0062 q -0.04186,0 -0.04186,-0.02791 0,-0.04651 0.04651,-0.110071 0.04651,-0.06356 0.141076,-0.116272 v -0.0062 l 0.04186,-0.0062 q 0.02481,-0.04496 0.05736,-0.04496 0.0186,-0.0078 0.04186,-0.02945 0.02325,-0.02326 0.10387,-0.06201 l 0.04031,0.0217 0.03256,-0.0155 0.04806,-0.0124 z m 1.299145,0.01395 0.03876,0.0062 h 0.0062 l -0.0062,0.0155 h 0.0124 l 0.0217,0.0217 0.07286,0.0062 h 0.07286 l 0.04186,0.02325 h 0.0155 l 0.02325,0.07906 -0.03256,0.02791 v 0.02946 l 0.05116,0.05116 -0.0062,0.142627 h -0.0217 l -0.0078,0.02791 h -0.0062 v 0.04496 l 0.02946,0.0062 0.0124,0.0155 -0.0186,0.02946 v 0.0217 l -0.03876,0.0186 -0.02791,0.02325 -0.08062,0.04341 q -0.03256,0.03411 -0.05581,0.05116 l -0.02325,0.06356 -0.136426,0.05426 -0.136426,-0.0031 0.0062,0.03411 h -0.02791 l -0.0062,0.0093 -0.06666,0.01395 -0.0062,-0.02325 -0.02325,0.0093 v 0.01395 l -0.05736,0.0217 -0.0217,0.06356 0.02945,0.07906 v 0.03876 l 0.0155,0.03411 q -0.03101,0.09147 -0.04496,0.09612 l 0.0093,0.02791 -0.0155,0.0062 0.03566,0.0155 v 0.04806 l 0.03101,0.0217 q 0.07751,-0.02325 0.09457,-0.03411 l 0.02325,0.02171 0.0062,-0.0062 q 0.06356,-0.0062 0.100769,-0.0155 l 0.01085,-0.0186 h 0.03721 l 0.02945,-0.0031 0.03721,0.0186 -0.0093,-0.0124 h 0.03101 l 0.03876,-0.03256 0.04496,-0.0031 h -0.0093 l 0.04341,-0.0186 0.0124,0.0093 0.02325,-0.0217 h 0.03101 l 0.02946,-0.02946 q 0.03411,-0.0015 0.110071,-0.04031 v -0.01705 l 0.04496,-0.0124 0.04806,-0.06976 0.05116,0.0062 q 0.02635,0.02481 0.06201,0.02946 l 0.02325,0.0217 -0.03566,0.06666 0.0062,0.04186 -0.04961,0.02791 -0.0062,0.0155 -0.07441,0.0093 -0.04031,0.04186 -0.04496,0.0031 -0.0124,0.03566 -0.06046,-0.0062 -0.0186,0.04341 -0.04806,-0.0062 -0.0186,0.02171 q -0.05271,0.02015 -0.05426,0.02325 l -0.0217,-0.0124 -0.03566,0.03411 h -0.05116 l -0.03101,0.0155 h -0.0186 l -0.02325,0.02015 q -0.04031,0.01085 -0.08217,0.03411 l -0.0217,-0.0155 h -0.04496 l -0.0186,0.0155 -0.01705,-0.0062 -0.0217,0.0062 -0.0062,-0.0062 -0.0155,0.03566 h -0.04186 l -0.03411,0.0186 q -0.01705,0.0093 -0.07441,0.0155 l -0.0155,0.0155 h -0.02791 l -0.04186,0.0062 -0.03101,0.03876 -0.04186,-0.0155 -0.0217,0.0279 -0.01705,-0.0047 q -0.0062,-0.0015 -0.06201,-0.05891 l 0.0062,-0.03721 -0.0062,-0.02015 0.0062,-0.03721 -0.02325,-0.05736 0.0093,-0.04496 -0.0155,-0.06976 0.0155,-0.05736 -0.0217,-0.08837 -0.0062,-0.0062 0.0062,-0.04496 0.05116,-0.0186 v -0.03101 l -0.0217,-0.0078 0.0062,-0.04031 -0.01395,-0.02325 0.0078,-0.03721 0.0217,-0.0124 -0.0062,-0.03566 0.0062,-0.06046 0.0124,-0.0062 0.0217,-0.07286 0.05116,-0.09147 0.04496,-0.01705 0.0062,-0.04961 -0.0062,-0.01395 0.0062,-0.02791 0.02791,-0.0155 0.01705,-0.05116 h -0.03876 v -0.0186 l 0.0155,-0.02325 -0.0062,-0.0217 0.0062,-0.0217 h 0.0062 v -0.05116 l 0.05116,-0.0062 0.0217,-0.04496 0.10852,-0.120923 h 0.0217 q 0.0186,-0.02946 0.04806,-0.04961 l 0.0217,0.0062 q 0.0217,-0.0078 0.05116,-0.05116 h 0.0155 l 0.02946,-0.0186 h 0.0124 l 0.0217,-0.03256 z m -0.03721,0.26355 -0.05426,0.0186 -0.04186,-0.0186 q -0.03721,0.03101 -0.06046,0.04341 -0.0047,0.04031 -0.03256,0.06821 -0.02636,0.02791 -0.03721,0.02791 h -0.0279 l 0.0186,0.03411 q -0.01705,0.03101 -0.04496,0.09612 l -0.02481,-0.0062 -0.0093,0.04031 0.0093,0.05736 0.03101,0.01705 q 0.01395,0.0078 0.07752,0.0186 l 0.04961,-0.03256 0.102319,-0.0093 0.05426,-0.07906 0.07286,-0.06046 0.0093,-0.114722 -0.0248,-0.03721 -0.0031,-0.05426 h -0.03566 z m 1.892907,-0.37207 q 0.01085,-0.0031 0.06046,0.0031 0.04961,0.0062 0.06356,0.0217 l 0.05271,-0.0124 0.02945,0.0031 0.0217,0.04186 -0.0031,0.03101 q -0.03101,0.0248 -0.04186,0.05426 h -0.0155 l -0.01705,0.0186 q -0.0078,0.0078 -0.06511,0.02636 l -0.0031,0.288355 0.02481,0.148828 0.0031,0.153479 0.02325,0.187585 0.09767,0.266651 q 0.02635,0.02945 0.03566,0.04651 0.07751,-0.04341 0.09767,-0.04341 0.06356,-0.07286 0.08217,-0.07596 v -0.01705 l 0.175183,-0.148828 0.0031,-0.02791 q 0.01705,-0.0031 0.06666,-0.06046 l 0.05736,0.0124 0.03101,0.06976 -0.0124,0.06046 -0.03101,-0.0124 -0.0155,0.03411 h -0.02946 q -0.01705,0.04651 -0.05116,0.07596 v 0.01705 l -0.08527,0.07906 -0.0155,0.04031 q -0.02945,0.02015 -0.09922,0.05426 l -0.0124,0.02326 -0.0031,-0.0078 -0.0186,0.03256 -0.04186,0.0124 -0.0062,0.0217 h -0.0217 l 0.0093,0.02325 -0.02481,0.04806 -0.02325,0.0062 q 0.0031,0.0248 -0.05116,0.09147 l -0.07286,0.0031 -0.0155,0.04496 -0.04496,0.0124 q -0.05116,-0.01395 -0.08217,-0.06356 l -0.103869,-0.168982 -0.09922,-0.221692 0.0093,-0.08216 -0.0217,-0.07286 0.0155,-0.0031 q -0.04496,-0.08992 -0.04496,-0.136426 l 0.0078,-0.05736 -0.04806,-0.02946 -0.03256,0.02015 v -0.0078 l -0.0155,0.0078 -0.04186,0.10697 -0.0217,-0.0093 -0.0062,0.0217 -0.0155,-0.0062 v 0.01395 h -0.0062 q -0.0016,0.0093 -0.04496,0.07906 l -0.0124,-0.0062 -0.0093,0.06666 -0.03256,0.01705 q -0.03256,0.01705 -0.04186,0.04031 l -0.0124,0.03101 0.01395,0.0186 -0.03566,0.0124 -0.0155,0.06356 -0.02636,0.01395 0.0078,0.0124 q -0.03721,0.02791 -0.06046,0.03721 l -0.01395,0.02325 -0.0124,-0.01705 -0.0217,0.05426 h -0.0186 l -0.02636,0.08992 -0.0279,0.0093 -0.0031,0.04651 h -0.04496 l -0.04496,0.102319 -0.0217,0.0155 h -0.0186 l -0.0062,0.02946 -0.09922,0.03721 -0.10387,0.0031 -0.04496,-0.294556 0.0186,-0.03876 0.0047,-0.03101 q 0.0016,-0.0124 0.03721,-0.09302 l -0.0062,-0.0217 q 0.02791,-0.06356 0.03721,-0.07596 l -0.0124,-0.0062 0.02945,-0.07596 0.0016,-0.02945 q 0.0016,-0.0124 0.02325,-0.05736 -0.0124,-0.07441 -0.02481,-0.08527 l 0.0124,-0.0217 0.04031,0.0062 q 0.03566,-0.04806 0.04496,-0.05116 l 0.0093,-0.02791 h 0.0062 l -0.0217,-0.03256 0.0186,-0.08217 0.0124,0.0062 q 0.0186,-0.04806 0.02325,-0.04806 l -0.0062,-0.04031 0.04341,-0.08062 v -0.0217 l -0.0093,-0.0186 0.06356,-0.136426 0.07286,-0.09922 q 0.03721,-0.03256 0.06356,-0.07286 l 0.05426,-0.0217 0.07286,-0.07596 0.06976,-0.04186 h 0.04186 l 0.03411,-0.0093 h 0.04806 l 0.0217,-0.03566 0.04496,0.0031 h 0.04496 v -0.0124 q 0.0186,0.0015 0.04031,0.0155 l 0.04806,-0.0186 0.03566,0.0093 0.0093,-0.0124 0.03721,0.0124 z m -0.399975,0.244946 -0.03876,0.0062 -0.04806,-0.0031 -0.0155,0.02791 v 0.02325 q -0.02481,0.0124 -0.05426,0.0217 l -0.0279,0.06976 q -0.0217,0.09302 -0.02636,0.09457 h -0.0155 l -0.0217,0.05116 -0.01085,0.04341 q -0.0047,0.02015 -0.03101,0.03256 l -0.0155,0.05426 -0.02481,0.04651 q -0.01395,0.02635 -0.01395,0.05581 v 0.0124 l -0.0155,-0.0124 v 0.02481 h -0.0093 l 0.0031,0.0155 -0.0124,0.02635 -0.0186,0.08217 -0.03256,0.06666 -0.0062,0.09457 -0.0093,0.01395 h -0.0062 l -0.0062,0.02791 0.0124,0.0124 -0.0155,0.05736 h -0.0062 l 0.0062,0.0186 h -0.02326 l 0.0031,0.114722 0.01395,0.05426 h 0.0062 l 0.03411,-0.03256 0.08992,-0.127124 0.161231,-0.21239 0.04806,-0.05116 0.10697,-0.173632 0.111621,-0.148829 0.0093,-0.03256 -0.0217,-0.0279 0.04031,-0.06976 0.0093,-0.05271 q 0.0016,-0.0078 0.02636,-0.04031 l 0.0031,-0.124023 -0.04186,-0.0031 h -0.03411 l -0.04496,-0.03101 -0.0093,0.0155 z m 3.866431,0.917774 -0.03256,0.0186 -0.0093,-0.0124 v 0.0279 l -0.0062,-0.0062 q -0.0155,0.04496 -0.0248,0.05116 -0.0078,0.0062 -0.02015,0.0062 h -0.0124 v 0.0062 q 0,0.0155 -0.0217,0.0155 l 0.0062,0.0062 -0.0062,0.0062 -0.0062,-0.0062 v 0.0124 q -0.0124,0 -0.0217,0.01085 -0.0078,0.0093 -0.0078,0.0124 v 0.0217 l -0.0217,-0.0062 0.0062,0.0124 -0.03566,0.01705 -0.09457,0.10697 -0.0062,-0.0062 q 0,0.02481 -0.0217,0.02791 -0.02015,0.114721 -0.06356,0.114721 l -0.07596,-0.01395 q -0.02946,-0.0047 -0.04186,-0.0062 -0.0124,-0.0016 -0.06976,-0.04341 -0.01705,0.0031 -0.04806,0.02325 -0.0217,-0.01395 -0.04806,-0.04496 h 0.0062 v -0.0217 l 0.01705,-0.0078 -0.01705,-0.02791 0.04806,-0.03411 -0.06356,-0.04496 -0.0062,-0.02945 q 0.0248,-0.01395 0.0248,-0.0217 0,-0.0016 -0.05271,-0.08527 -0.04961,-0.04496 -0.06356,-0.07286 h 0.0062 l -0.0062,-0.02946 0.0217,-0.04341 v -0.02946 h 0.0031 q 0.0031,0 0.0031,-0.0031 0,-0.0031 -0.0217,-0.06046 h 0.0062 l -0.0186,-0.0217 q 0.0186,-0.0248 0.0186,-0.05426 0,-0.04651 -0.06356,-0.139526 l -0.0186,-0.05116 q -0.0062,-0.128674 -0.03876,-0.151929 -0.05736,0.04341 -0.05736,0.07596 l 0.0031,0.0124 q 0,0.02635 -0.04031,0.02635 h -0.01395 q -0.02325,0.04496 -0.05581,0.08527 l 0.0062,0.0279 -0.02946,0.02326 q -0.0016,0.02325 -0.0124,0.04496 -0.01085,0.02015 -0.02481,0.03411 -0.01395,0.01395 -0.03566,0.05736 l -0.0062,-0.0062 v 0.0186 l -0.0155,0.0093 -0.0124,0.02791 q -0.02946,0.0155 -0.02946,0.03256 0,0.0062 0.0062,0.0186 h -0.0062 v 0.0124 h -0.0093 l -0.0186,0.05116 -0.03256,0.0155 0.0093,0.03566 q -0.02015,0.05426 -0.07906,0.124024 v 0.03411 q -0.01085,0.102319 -0.03101,0.130225 h -0.0062 q 0.0016,0.0217 -0.03101,0.05271 -0.03101,0.03256 -0.04961,0.04496 -0.0186,0.01395 -0.05271,0.01395 h -0.01395 q -0.0031,-0.0031 -0.0124,-0.0031 -0.0078,0 -0.05426,0.03876 l -0.01085,0.02015 q -0.0047,0.0093 -0.0093,0.0093 -0.0031,0.0015 -0.01085,0.0015 -0.01705,0 -0.0186,-0.0031 l -0.03566,-0.05116 -0.04496,-0.0062 -0.0155,-0.03721 q 0.01085,-0.04186 0.03876,-0.08682 l -0.0062,-0.0217 q 0.0124,-0.0046 0.0124,-0.0124 0,-0.0062 -0.0062,-0.0093 l 0.0124,-0.04806 v -0.0093 l -0.0093,-0.0124 0.0062,-0.01705 0.0093,0.0093 q 0.0046,-0.03566 0.03566,-0.04341 l 0.0155,-0.02946 0.0124,-0.0062 q 0.01705,-0.04186 0.02791,-0.05116 l -0.0062,-0.05581 q 0,-0.02791 0.01705,-0.06666 h 0.0093 v -0.0078 l -0.0093,-0.0062 0.03721,-0.139526 0.0217,-0.04031 V 94.3217 l -0.03721,-0.02326 -0.0124,-0.03721 q -0.01705,-0.0217 -0.01705,-0.03566 l 0.0078,-0.05736 q 0,-0.06511 -0.02946,-0.07286 -0.0186,0.01395 -0.03411,0.01705 v 0.0062 l -0.02325,0.02791 h -0.03411 l -0.0062,0.0217 h -0.01705 q -0.0217,0.02635 -0.04496,0.08061 -0.02325,0.05271 -0.03411,0.07286 -0.04651,0.03721 -0.07286,0.06976 v 0.0155 q -0.04341,0 -0.05736,0.05116 l -0.0062,-0.0093 v 0.0155 h -0.0217 q -0.0078,0.03566 -0.02946,0.06201 -0.02015,0.02636 -0.04341,0.05271 0,0.01705 -0.02015,0.0217 -0.0062,0.03101 -0.04341,0.05736 l -0.0155,0.02015 q -0.0078,0.0078 -0.01395,0.04651 l -0.0217,0.0124 v 0.0093 q -0.0217,0.0047 -0.0217,0.0186 h -0.01395 q 0,0.03566 -0.0155,0.03876 -0.03721,0.0217 -0.05891,0.05426 -0.02015,0.03101 -0.02015,0.03721 v 0.01705 q -0.03566,0.04651 -0.03566,0.120923 h -0.0062 l 0.0062,0.0155 -0.0217,0.06356 q 0.04496,-0.02015 0.05736,-0.02015 0.0217,0 0.0217,0.02946 l -0.0155,0.0124 v 0.0062 l -0.0186,0.03876 q -0.05271,0.04031 -0.07286,0.06976 v 0.0093 l -0.01705,0.0062 q -0.0248,0.06201 -0.04651,0.102319 l -0.06666,0.03411 -0.02015,-0.04341 q -0.0093,-0.02015 -0.05271,-0.07131 0.0186,-0.0124 0.0217,-0.0217 -0.0078,-0.0124 -0.03566,-0.02791 h -0.0217 q -0.03566,0 -0.04806,-0.0093 -0.0124,-0.0078 -0.0155,-0.04186 l 0.0062,-0.0062 q -0.0093,-0.0093 -0.0093,-0.02015 0,-0.0062 0.0031,-0.0093 v -0.02791 l 0.0062,0.0062 v -0.0217 q 0.03566,-0.0124 0.03566,-0.04496 0.01085,-0.0078 0.02171,-0.03566 l -0.0124,-0.0217 q 0.04806,-0.0186 0.04806,-0.06356 0.04341,-0.02635 0.04341,-0.09767 v -0.01705 l 0.02325,-0.0155 -0.01705,-0.0217 0.01705,-0.02325 -0.01705,-0.0062 v -0.0217 l 0.02945,-0.05736 h -0.0124 v -0.0124 l -0.02946,-0.0155 v -0.02946 l 0.03566,-0.130224 -0.0124,-0.03411 q 0.0016,-0.0015 0.0124,-0.03876 h 0.0031 q 0.01705,0 0.02015,-0.01395 0.0047,-0.01395 0.0062,-0.05736 0.0016,-0.04341 0.0047,-0.07131 l -0.0186,-0.0155 0.0186,-0.03566 v -0.04341 l 0.0093,-0.02946 q -0.03101,-0.0124 -0.03101,-0.04651 l 0.0031,-0.02326 -0.03876,-0.03721 -0.09147,-0.0062 -0.0062,-0.05736 0.04186,-0.01705 -0.0078,0.01705 0.01395,-0.0062 q 0,-0.02945 0.02791,-0.03876 0.01085,-0.04186 0.05581,-0.04806 0.04651,-0.0078 0.04651,-0.06046 h 0.0093 l 0.02791,-0.07906 h 0.0124 v -0.0217 h 0.0062 q 0.01395,-0.05271 0.06666,-0.09147 0.05271,-0.03876 0.09612,-0.05116 0.06046,-0.0078 0.09767,-0.06356 l 0.04496,0.03411 -0.0093,0.0062 q 0.06976,0.0186 0.15813,0.02325 v 0.0062 q -0.0186,0.0047 -0.03721,0.0124 -0.01705,0.0062 -0.03566,0.01705 -0.01705,0.01085 -0.0217,0.02481 l -0.0124,0.03411 -0.03566,0.0062 v 0.04186 h 0.0062 q -0.0047,0.0186 -0.0124,0.0217 l -0.0155,0.04496 q -0.03566,0.04031 -0.03566,0.07286 l 0.0062,0.03101 q 0,0.01085 -0.0062,0.01085 h -0.0155 v 0.0093 h -0.0062 l 0.0062,0.02791 q -0.0186,0.0047 -0.0186,0.02945 l 0.0031,0.0093 q 0,0.02015 -0.03566,0.06046 0,0.02791 -0.0279,0.02791 l -0.03566,0.03256 0.01705,0.03411 -0.01085,0.05736 v 0.04496 q -0.0093,0.0062 -0.0279,0.0124 l -0.0062,0.03721 q 0,0.02481 -0.0217,0.04186 l 0.0062,0.04496 -0.02015,0.04961 -0.02791,0.207739 q 0.0047,0.03101 0.02791,0.03101 0.01395,-0.0093 0.0279,-0.02326 0.01395,-0.01395 0.02946,-0.03256 0.0155,-0.0186 0.0248,-0.03256 0.01085,-0.01395 0.04496,-0.03566 l 0.02325,-0.04496 h 0.02791 q 0.0093,-0.0186 0.0093,-0.03411 0.0186,-0.0186 0.0186,-0.04496 0.06201,-0.01395 0.08062,-0.06976 h 0.0093 q 0.0155,-0.05581 0.06356,-0.07906 0.02015,0 0.02945,-0.01395 0.0093,-0.0155 0.04341,-0.05271 v -0.0217 h 0.0062 v -0.02015 q 0.07131,-0.05736 0.07906,-0.05581 v -0.01705 l 0.0062,-0.0217 h 0.01705 q -0.0078,-0.01085 -0.0078,-0.0155 0,-0.0186 0.02946,-0.04186 h 0.04031 q 0.0047,-0.06201 0.09612,-0.114722 l 0.0062,0.0062 v -0.0155 l 0.0062,-0.0186 0.0093,0.0062 q 0.01085,-0.04651 0.0217,-0.05116 0.0124,-0.0062 0.02015,-0.0062 0.0047,0 0.0155,0.0062 0.0031,-0.04031 0.02636,-0.04031 0.0124,0 0.03721,0.0186 h 0.0124 q 0.05581,0 0.06666,0.05736 0.06821,0.0031 0.08837,0.04031 0.02015,0.03721 0.02015,0.05426 0,0.02481 -0.0217,0.04186 l -0.0078,0.0217 q 0,0.0248 0.02015,0.05116 l 0.0031,0.03876 h -0.0062 q -0.0062,0.03411 -0.03876,0.06976 l 0.0155,0.0217 -0.0062,0.05736 0.0124,0.02791 q 0,0.05116 0.02945,0.05116 0.02325,0 0.02791,-0.02791 l 0.01705,-0.02946 q 0.05891,-0.05891 0.07906,-0.09457 l 0.03411,-0.0062 0.02325,-0.05116 0.02791,-0.0186 q 0.03101,-0.0155 0.03566,-0.04806 0.03566,-0.0078 0.06976,-0.05891 0.03411,-0.05116 0.06046,-0.05271 l 0.0093,-0.0093 q 0.01395,-0.03411 0.0186,-0.03566 l 0.0093,0.0031 q 0.0062,0 0.0062,-0.0093 l 0.02945,-0.0155 q 0.04341,0 0.05736,-0.05116 0.03721,-0.0047 0.04961,-0.0217 l 0.01705,-0.0062 0.0186,0.0062 q 0.05426,0 0.07286,0.05116 l 0.03411,-0.0062 0.04496,0.06666 v 0.03411 q 0.03411,0.100769 0.04496,0.15968 h 0.0124 q -0.0031,0.05116 -0.02791,0.09147 l 0.0217,0.02791 -0.0217,0.05116 q 0.0155,0.05736 0.0155,0.09922 0,0.04961 -0.0155,0.06666 l 0.0062,0.09457 h 0.0093 l -0.0124,0.03876 -0.01705,0.0062 v 0.0186 q 0,0.06511 0.02945,0.108521 0.0093,0.15813 0.06046,0.15813 0.01705,0 0.08837,-0.08527 l 0.03876,-0.0062 0.0124,-0.03566 0.0279,-0.0217 -0.0062,-0.0093 0.07906,-0.06976 0.04496,-0.05736 h 0.0124 l 0.03566,-0.06046 q 0.0093,0.0093 0.0186,0.0093 0.02481,0 0.04806,-0.05116 h 0.0062 q 0.0062,0 0.0062,-0.0031 v -0.0031 l 0.06356,0.06666 z"
       id="text1"
       style="font-size:3.175px;font-family:'Viner Hand ITC';-inkscape-font-specification:'Viner Hand ITC';white-space:pre;inline-size:34.9511;stroke-width:0.265"
       aria-label="Star Dream" />
  </g>
</svg>
