<?xml version="1.0" standalone="no"?><!DOCTYPE svg PUBLIC "-//W3C//DTD SVG 1.1//EN" "http://www.w3.org/Graphics/SVG/1.1/DTD/svg11.dtd"><svg t="1718433877535" class="icon" viewBox="0 0 1024 1024" version="1.1" xmlns="http://www.w3.org/2000/svg" p-id="39265" xmlns:xlink="http://www.w3.org/1999/xlink" width="200" height="200"><path d="M0 0h1024v1024H0z" fill="#FAECBF" p-id="39266"></path><path d="M842.581333 389.248c-16.768 166.4-183.168 435.882667-603.349333 392.021333 0 0 206.933333-3.2 172.544-457.728z" fill="#E7DF56" p-id="39267"></path><path d="M326.698667 794.453333a862.122667 862.122667 0 0 1-88.362667-4.693333 8.533333 8.533333 0 0 1 0.768-17.066667c0.384 0 44.416-1.621333 86.698667-48.341333C407.978667 633.6 413.312 456.533333 403.285333 324.266667a8.533333 8.533333 0 0 1 2.688-6.912 8.533333 8.533333 0 0 1 7.125334-2.176l430.933333 65.706666a8.533333 8.533333 0 0 1 7.210667 9.301334c-8.277333 82.090667-55.466667 200.96-162.901334 288.469333-94.08 76.544-217.856 115.797333-361.642666 115.797333zM285.866667 776.533333c157.312 7.978667 291.882667-29.866667 391.381333-110.933333s145.621333-190.634667 155.733333-268.8L421.077333 333.568c9.173333 134.912 1.322667 310.314667-83.242666 402.944A176.384 176.384 0 0 1 285.866667 776.533333z" fill="#650953" p-id="39268"></path><path d="M444.501333 482.133333c3.114667 131.285333-30.634667 257.536-205.269333 299.306667 0 0 56.874667-106.666667-63.018667-346.538667z" fill="#EE719B" p-id="39269"></path><path d="M239.232 789.802667a8.533333 8.533333 0 0 1-6.741333-3.328 8.533333 8.533333 0 0 1-0.810667-9.216c0.554667-1.024 52.821333-106.666667-63.104-338.730667a8.533333 8.533333 0 0 1 9.088-12.202667L445.994667 473.6a8.533333 8.533333 0 0 1 7.04 8.192c2.602667 109.781333-16.512 261.077333-211.797334 307.797333a8.533333 8.533333 0 0 1-2.005333 0.213334z m-48-343.765334c87.381333 181.717333 72.917333 285.098667 61.781333 322.816 69.930667-19.754667 118.485333-55.168 148.053334-107.861333 24.490667-43.562667 35.968-99.84 35.029333-171.861333z" fill="#650953" p-id="39270"></path><path d="M286.890667 288.768l54.144 37.589333 65.365333-8.533333a24.192 24.192 0 0 1 26.325333 30.976L413.866667 411.776l28.416 59.477333a24.192 24.192 0 0 1-21.333334 34.645334l-65.92 1.408L307.2 552.746667a24.234667 24.234667 0 0 1-39.552-9.6l-21.717333-62.208-57.941334-31.445334a24.192 24.192 0 0 1-3.114666-40.533333l52.48-39.893333 11.989333-64.810667a24.192 24.192 0 0 1 37.546667-15.488z" fill="#E7DF56" p-id="39271"></path><path d="M290.517333 567.936a32.810667 32.810667 0 0 1-30.933333-21.802667L238.933333 486.869333l-55.04-29.866666a32.682667 32.682667 0 0 1-4.266666-54.826667l49.834666-37.888 11.392-61.610667A32.725333 32.725333 0 0 1 291.754667 281.6l51.413333 35.84L405.333333 309.248a32.682667 32.682667 0 0 1 35.626667 41.856l-18.090667 59.989333 26.965334 56.490667a32.725333 32.725333 0 0 1-28.8 46.933333l-62.634667 1.28L313.002667 558.933333a32.597333 32.597333 0 0 1-22.485334 9.002667zM273.066667 292.949333a15.957333 15.957333 0 0 0-6.058667 1.194667 15.488 15.488 0 0 0-9.429333 11.648l-11.946667 64.810667a8.533333 8.533333 0 0 1-3.242667 5.248l-52.48 39.893333a15.658667 15.658667 0 0 0 2.005334 26.24L249.984 473.6a8.533333 8.533333 0 0 1 3.968 4.693333l21.717333 62.250667a15.744 15.744 0 0 0 25.6 6.186667l47.786667-45.44a8.533333 8.533333 0 0 1 5.674667-2.346667l65.92-1.408a15.488 15.488 0 0 0 12.8-7.466667 15.274667 15.274667 0 0 0 0.768-14.933333l-28.202667-59.690667a8.533333 8.533333 0 0 1-0.469333-6.144l19.029333-63.104a15.530667 15.530667 0 0 0-3.072-14.677333 15.36 15.36 0 0 0-13.994667-5.376l-65.365333 8.533333a8.533333 8.533333 0 0 1-5.973333-1.450666L282.026667 295.765333a15.530667 15.530667 0 0 0-8.96-2.816z" fill="#740E62" p-id="39272"></path><path d="M850.218667 623.189333c-100.224 147.968-283.136 210.176-610.986667 158.08 0 0 385.408 81.066667 494.933333-264.789333z" fill="#8CCBA0" p-id="39273"></path><path d="M447.36 808.021333a1278.336 1278.336 0 0 1-176.298667-13.397333c-19.968-2.218667-32.213333-4.736-33.578666-5.034667a8.533333 8.533333 0 0 1 3.072-16.768q14.421333 2.304 28.416 4.266667a560.298667 560.298667 0 0 0 175.488-6.954667c142.506667-29.866667 237.269333-116.096 281.6-256.256a8.533333 8.533333 0 0 1 13.909333-3.669333l115.925333 106.666667a8.533333 8.533333 0 0 1 1.28 11.050666c-81.92 121.173333-214.4 180.096-409.813333 180.096z m-20.138667-17.066666c197.034667 3.968 330.026667-50.389333 411.733334-166.4L738.133333 531.712c-59.989333 172.970667-190.592 234.325333-290.816 255.232-6.698667 1.408-13.44 2.688-20.096 3.797333z" fill="#6C0C5B" p-id="39274"></path><path d="M829.44 478.933333l16.256 34.133334 34.986667 14.293333a13.866667 13.866667 0 0 1 4.266666 22.912l-27.349333 25.941333-2.773333 37.717334a13.866667 13.866667 0 0 1-20.437334 11.136l-33.194666-18.048-36.736 9.002666a13.866667 13.866667 0 0 1-17.066667-16l6.912-37.162666-19.882667-32.128a13.866667 13.866667 0 0 1 9.984-21.034667l37.461334-4.906667 24.405333-28.885333a13.866667 13.866667 0 0 1 23.168 3.029333z" fill="#E7DF56" p-id="39275"></path><path d="M840.917333 635.306667a22.314667 22.314667 0 0 1-10.709333-2.730667l-30.293333-16.469333-33.493334 8.234666a22.4 22.4 0 0 1-27.349333-25.856l6.272-34.133333-18.133333-29.312a22.4 22.4 0 0 1 16.128-34.133333l34.133333-4.266667 22.272-26.368a22.442667 22.442667 0 0 1 37.333333 4.864l14.848 31.104 31.914667 13.056a22.4 22.4 0 0 1 6.954667 36.992l-25.002667 23.978667-2.517333 34.389333a22.357333 22.357333 0 0 1-22.357334 20.778667z m-39.808-36.821334a8.533333 8.533333 0 0 1 4.266667 1.066667l33.194667 18.048a5.461333 5.461333 0 0 0 5.12 0 5.376 5.376 0 0 0 2.773333-4.266667l2.773333-37.674666a8.533333 8.533333 0 0 1 2.645334-5.589334l27.434666-25.984a5.290667 5.290667 0 0 0 1.536-4.864 5.205333 5.205333 0 0 0-3.2-3.968l-34.986666-14.293333a8.533333 8.533333 0 0 1-4.266667-4.266667l-16.256-34.133333a5.290667 5.290667 0 0 0-8.874667-1.152l-24.405333 28.842667a8.533333 8.533333 0 0 1-5.418667 2.944l-37.461333 4.906666a5.290667 5.290667 0 0 0-4.266667 3.029334 5.162667 5.162667 0 0 0 0.298667 5.077333l19.882667 32.128a8.533333 8.533333 0 0 1 1.152 6.058667l-7.210667 37.205333a5.333333 5.333333 0 0 0 1.578667 4.864 5.248 5.248 0 0 0 4.949333 1.28l36.693333-9.002667a8.533333 8.533333 0 0 1 2.048-0.256z" fill="#740E62" p-id="39276"></path><path d="M684.885333 220.032l40.832 96.085333 94.848 43.562667a38.4 38.4 0 0 1 9.130667 63.701333L750.933333 491.904l-12.117333 103.68a38.4 38.4 0 0 1-57.770667 28.416l-89.6-53.76-102.4 20.522667a38.4 38.4 0 0 1-44.842666-46.165334l23.424-101.76-51.2-91.008a38.4 38.4 0 0 1 29.866666-56.917333L550.698667 285.866667l70.741333-76.8a38.4 38.4 0 0 1 63.445333 10.965333z" fill="#E7DF56" p-id="39277"></path><path d="M700.458667 633.813333a46.933333 46.933333 0 0 1-24.106667-6.698666l-86.656-52.053334-99.029333 19.84a46.933333 46.933333 0 0 1-54.826667-56.448l22.698667-98.517333-49.621334-88.106667a46.933333 46.933333 0 0 1 36.736-69.632l100.693334-8.832 68.522666-74.325333a46.933333 46.933333 0 0 1 77.568 13.44l39.509334 93.056 91.861333 42.197333a46.933333 46.933333 0 0 1 11.221333 77.909334l-76.288 66.346666-11.733333 100.394667a46.933333 46.933333 0 0 1-46.549333 41.429333z m-109.226667-76.288a8.832 8.832 0 0 1 4.266667 1.194667l89.6 53.76a29.866667 29.866667 0 0 0 44.885333-22.058667l12.416-103.722666a8.533333 8.533333 0 0 1 2.858667-5.418667l78.762666-68.522667a29.866667 29.866667 0 0 0-7.125333-49.536l-95.061333-43.562666a8.533333 8.533333 0 0 1-4.266667-4.266667l-40.832-96.085333a29.866667 29.866667 0 0 0-49.322667-8.533334l-70.741333 76.8a8.533333 8.533333 0 0 1-5.546667 2.730667l-103.978666 8.917333a29.866667 29.866667 0 0 0-23.381334 44.245334l51.2 91.008a8.533333 8.533333 0 0 1 0.853334 6.101333L452.266667 542.293333a29.866667 29.866667 0 0 0 34.858666 35.882667l102.4-20.48a7.338667 7.338667 0 0 1 1.706667-0.170667z" fill="#740E62" p-id="39278"></path><path d="M568.490667 367.872c-10.197333-1.749333-20.736 10.154667-23.594667 26.624a43.690667 43.690667 0 0 0 0.426667 17.877333h14.250666l-8.832 10.965334a12.8 12.8 0 0 0 7.424 4.266666c10.154667 1.792 20.736-10.154667 23.594667-26.581333s-3.114667-31.36-13.269333-33.152zM681.344 387.413333c-10.197333-1.749333-20.778667 10.154667-23.594667 26.624a42.965333 42.965333 0 0 0 0.426667 17.877334h14.250667l-8.832 10.965333a13.269333 13.269333 0 0 0 7.424 4.266667c10.154667 1.749333 20.736-10.154667 23.594666-26.624s-3.114667-31.317333-13.269333-33.109334zM611.328 456.064c8.746667 1.493333 21.845333-6.314667 23.338667-15.061333s-18.645333-12.032-18.645334-12.032-20.096-3.669333-21.632 5.077333 8.192 20.48 16.938667 22.016z" fill="#740E62" p-id="39279"></path></svg>