<svg class="icon" viewBox="0 0 1024 1024"
		version="1.1" xmlns="http://www.w3.org/2000/svg" p-id="17700" xmlns:xlink="http://www.w3.org/1999/xlink"
		width="200" height="200">
		<g>
			<path
				d="M515.328 291.2a258.901333 258.901333 0 0 0-204.117333 418.133333c27.605333-44.544 65.066667-93.141333 97.28-94.122666 43.392-1.408 63.701333 53.504 84.394666 86.997333l0.853334-0.341333c13.781333-11.050667 26.24-35.328 48.213333-42.24a105.6 105.6 0 0 1 186.069333 38.058666 258.858667 258.858667 0 0 0-212.693333-406.485333z"
				fill="#E7DF56" p-id="17702"></path>
			<path
				d="M783.786667 611.2s24.704 38.912 29.866666 53.589333c0 0-42.026667 38.954667-53.333333 46.421334a23.04 23.04 0 0 0-14.976-7.04 28.117333 28.117333 0 0 0-15.104 3.797333 82.261333 82.261333 0 0 0-2.133333-10.24 258.858667 258.858667 0 1 0-416.810667 11.648q-4.608 7.424-8.832 14.592s-41.557333-10.325333-53.162667-19.797333c0 0 2.602667-38.4 7.253334-71.893334 0 0-50.090667-38.4-53.717334-50.816 0 0 17.536-37.76 32.042667-54.485333 0 0-46.336-65.749333-45.610667-74.496 0 0 54.229333-32.298667 70.229334-34.432 0 0-18.133333-79.104-11.306667-92.885333 0 0 59.733333-7.594667 93.354667 0 0 0 16.725333-76.288 26.88-85.717334 0 0 55.722667 11.648 89.984 27.605334 0 0 33.408-68.992 43.605333-74.069334 0 0 55.466667 45.738667 65.408 67.498667 0 0 69.76-29.056 84.266667-26.837333 0 0 30.506667 50.090667 34.858666 76.245333 0 0 65.365333-2.901333 82.773334-2.176 0 0-0.64 62.72-2.730667 80.128 0 0 55.765333 33.450667 60.117333 43.477333 0 0-23.253333 54.016-33.408 69.077334 0 0 29.056 47.701333 33.408 59.349333-0.085333-0.128-32.725333 43.434667-42.922666 51.456z"
				fill="#E7DF56" p-id="17703"></path>
			<path
				d="M311.168 717.866667a8.533333 8.533333 0 0 1-6.741333-3.285334 264.746667 264.746667 0 0 1-56.533334-164.48A267.434667 267.434667 0 1 1 738.133333 698.410667a8.533333 8.533333 0 0 1-14.208-9.472A250.368 250.368 0 1 0 317.909333 704a8.533333 8.533333 0 0 1-1.493333 11.946667 8.533333 8.533333 0 0 1-5.248 1.92z"
				fill="#740E62" p-id="17704"></path>
			<path
				d="M446.464 434.304c-16.256 0-29.397333 21.333333-29.397333 47.530667A69.376 69.376 0 0 0 422.4 509.44l22.058667-4.010667-10.666667 19.370667a20.522667 20.522667 0 0 0 12.8 4.693333c16.213333 0 29.397333-21.333333 29.397333-47.573333s-13.312-47.616-29.525333-47.616zM609.706667 428.117333c-14.336 1.237333-24.32 20.992-22.314667 44.117334a60.757333 60.757333 0 0 0 6.912 23.936l19.157333-5.248-8.021333 17.877333a18.218667 18.218667 0 0 0 11.477333 3.157333c14.336-1.237333 24.32-21.034667 22.314667-44.16s-15.232-40.917333-29.525333-39.68zM531.84 547.242667a63.573333 63.573333 0 0 1-25.301333-4.778667 4.266667 4.266667 0 0 1 3.669333-7.722667c1.152 0.512 25.898667 11.733333 57.642667-5.802666a4.266667 4.266667 0 0 1 4.266666 7.466666 82.389333 82.389333 0 0 1-40.277333 10.837334z"
				fill="#740E62" p-id="17705"></path>
			<path
				d="M302.378667 732.458667a9.045333 9.045333 0 0 1-2.090667-0.256c-4.266667-1.109333-43.733333-11.093333-56.448-21.333334a8.533333 8.533333 0 0 1-3.157333-7.210666c0-0.384 2.432-35.584 6.613333-67.584-17.066667-13.44-49.066667-39.637333-52.736-52.181334a8.533333 8.533333 0 0 1 0.426667-5.973333 354.133333 354.133333 0 0 1 29.141333-51.2c-44.416-63.488-43.733333-71.68-43.477333-74.837333a8.533333 8.533333 0 0 1 4.266666-6.613334c7.978667-4.778667 43.776-25.6 64.512-33.194666-6.229333-27.690667-15.658667-77.269333-9.002666-90.752a8.533333 8.533333 0 0 1 6.613333-4.693334c2.304-0.256 52.906667-6.570667 87.850667-1.450666 6.058667-26.496 17.792-72.96 27.648-82.133334a8.533333 8.533333 0 0 1 7.509333-2.090666c2.176 0.469333 49.621333 10.453333 84.181333 24.832 15.274667-31.018667 34.133333-65.706667 43.904-70.570667a8.533333 8.533333 0 0 1 9.216 1.066667c5.248 4.266667 47.616 39.722667 63.573334 63.402666 21.888-8.917333 67.968-26.709333 81.92-24.618666a8.533333 8.533333 0 0 1 6.016 4.010666c1.194667 1.92 26.538667 43.733333 34.133333 71.850667 17.578667-0.725333 62.122667-2.474667 76.416-1.877333a8.533333 8.533333 0 0 1 8.192 8.533333c0 2.346667-0.597333 53.205333-2.304 75.52 21.973333 13.354667 54.570667 34.432 58.965333 44.586667a8.533333 8.533333 0 0 1 0 6.784c-0.896 2.048-19.968 46.293333-31.274666 65.749333 7.637333 12.8 27.562667 46.037333 31.402666 56.32a8.533333 8.533333 0 0 1-1.152 8.106667c-2.944 3.925333-25.6 34.133333-38.741333 47.829333 7.338667 11.818667 22.698667 37.290667 26.922667 49.408a8.533333 8.533333 0 0 1-2.304 9.045333c-4.266667 4.053333-42.88 39.68-54.4 47.317334a8.533333 8.533333 0 0 1-9.429334-14.250667c7.850667-5.205333 34.133333-28.928 47.914667-41.557333-6.229333-13.44-20.949333-37.504-26.837333-46.933334a8.533333 8.533333 0 0 1 1.92-11.306666c6.229333-4.906667 25.6-29.269333 38.4-45.952-5.674667-11.605333-20.821333-37.333333-30.848-53.802667a8.533333 8.533333 0 0 1 0.213333-9.216c7.253333-10.752 23.125333-45.781333 30.677333-63.146667-7.594667-7.296-32.768-24.149333-54.698666-37.290666a8.533333 8.533333 0 0 1-4.266667-8.533334c1.536-12.8 2.304-53.077333 2.56-70.741333-23.637333 0-73.173333 2.261333-73.770667 2.304a8.533333 8.533333 0 0 1-8.789333-7.125333c-3.029333-18.346667-21.717333-52.864-31.232-69.077334-12.8 1.749333-47.274667 14.122667-76.16 26.154667a8.533333 8.533333 0 0 1-11.008-4.266667c-6.826667-14.592-39.466667-44.373333-57.173333-59.733333-8.149333 11.178667-24.021333 40.490667-36.48 66.218667a8.533333 8.533333 0 0 1-11.264 4.010666c-26.794667-12.501333-67.882667-22.442667-82.645334-25.6-5.546667 12.16-15.274667 47.744-21.930666 78.421334a8.533333 8.533333 0 0 1-10.197334 6.528c-25.6-5.76-68.906667-2.048-84.522666-0.426667-0.810667 13.482667 5.333333 51.2 12.8 83.157333a8.533333 8.533333 0 0 1-1.28 6.741334 8.533333 8.533333 0 0 1-5.888 3.626666c-9.429333 1.28-40.234667 17.749333-61.098667 29.866667a735.658667 735.658667 0 0 0 42.325333 65.706667 8.533333 8.533333 0 0 1-0.554666 10.496c-10.965333 12.8-24.234667 39.04-28.970667 48.768 6.016 8.533333 29.013333 28.501333 49.408 44.202666a8.533333 8.533333 0 0 1 3.242667 7.936c-3.541333 25.6-5.930667 54.954667-6.784 66.346667 10.282667 5.674667 32.853333 12.501333 46.336 15.872a8.533333 8.533333 0 0 1-2.048 16.810667z"
				fill="#740E62" p-id="17706"></path>
			<path
				d="M708.266667 732.842667v-3.712a79.573333 79.573333 0 0 0-130.56-60.970667 37.290667 37.290667 0 0 0-15.488-6.698667 43.562667 43.562667 0 0 0-19.370667 1.493334 108.458667 108.458667 0 0 1 191.018667 39.125333 79.061333 79.061333 0 0 1 2.218666 10.496c-8.448 4.736-15.744 12.757333-27.818666 20.266667z"
				fill="#EE719B" p-id="17707"></path>
			<path
				d="M708.266667 729.130667v3.712a100.053333 100.053333 0 0 1-36.650667 13.482666 46.933333 46.933333 0 0 0 3.285333-17.066666 46.122667 46.122667 0 0 0-73.088-37.461334 127.658667 127.658667 0 0 0-24.192-23.509333A79.573333 79.573333 0 0 1 708.266667 729.130667z"
				fill="#E7DF37" p-id="17708"></path>
			<path
				d="M674.986667 729.130667a46.933333 46.933333 0 0 1-3.285334 17.066666 178.474667 178.474667 0 0 1-31.744 2.56 425.173333 425.173333 0 0 0-38.016-57.216 46.122667 46.122667 0 0 1 73.088 37.461334z"
				fill="#5474B4" p-id="17709"></path>
			<path
				d="M736.554667 720.213333a4.266667 4.266667 0 0 1-4.266667-3.754666 104.277333 104.277333 0 0 0-187.733333-48.853334 4.266667 4.266667 0 0 1-5.973334 0.896 4.266667 4.266667 0 0 1-0.938666-5.930666 112.853333 112.853333 0 0 1 203.093333 52.864 4.266667 4.266667 0 0 1-3.712 4.736z"
				fill="#740E62" p-id="17710"></path>
			<path
				d="M708.266667 738.56h-0.298667a4.266667 4.266667 0 0 1-3.968-4.693333v-4.906667a75.306667 75.306667 0 0 0-125.269333-56.405333 4.266667 4.266667 0 0 1-5.674667-6.4A83.882667 83.882667 0 0 1 712.533333 729.130667v5.461333a4.266667 4.266667 0 0 1-4.266666 3.968z"
				fill="#740E62" p-id="17711"></path>
			<path
				d="M670.549333 753.152a4.010667 4.010667 0 0 1-1.834666-0.426667 4.266667 4.266667 0 0 1-2.048-5.674666 41.216 41.216 0 0 0 4.010666-17.92 41.898667 41.898667 0 0 0-41.856-41.856 41.344 41.344 0 0 0-25.216 8.533333 4.266667 4.266667 0 0 1-5.973333-0.853333 4.266667 4.266667 0 0 1 0.810667-5.973334 50.432 50.432 0 0 1 75.946666 61.952 4.266667 4.266667 0 0 1-3.84 2.218667z"
				fill="#740E62" p-id="17712"></path>
			<path
				d="M634.88 789.034667h-349.866667a12.8 12.8 0 0 1-11.264-18.346667c5.589333-10.88 13.482667-25.6 22.912-41.685333 2.901333-4.906667 5.930667-9.898667 9.045334-15.018667 28.373333-45.738667 66.816-95.616 99.925333-96.64 44.544-1.408 65.365333 54.954667 86.613333 89.344l0.938667-0.341333c14.08-11.349333 26.922667-36.266667 49.450667-43.392a43.562667 43.562667 0 0 1 19.370666-1.493334 37.290667 37.290667 0 0 1 15.488 6.698667 127.658667 127.658667 0 0 1 24.192 23.509333 425.173333 425.173333 0 0 1 38.314667 57.216c3.370667 5.930667 6.442667 11.52 9.130667 16.597334a16 16 0 0 1-14.250667 23.552z"
				fill="#8CCBA0" p-id="17713"></path>
			<path
				d="M778.794667 789.034667H634.88a16 16 0 0 0 14.165333-23.552c-2.688-5.077333-5.76-10.666667-9.130666-16.597334a178.474667 178.474667 0 0 0 31.744-2.56 100.053333 100.053333 0 0 0 36.650666-13.482666c11.989333-7.381333 19.285333-15.530667 27.776-20.224a29.056 29.056 0 0 1 15.488-3.925334 23.722667 23.722667 0 0 1 15.36 7.253334c12.458667 11.605333 21.717333 34.901333 27.264 52.053333a16.170667 16.170667 0 0 1-15.402666 21.034667z"
				fill="#8CCBA0" p-id="17714"></path>
			<path
				d="M634.88 797.610667h-349.866667a21.333333 21.333333 0 0 1-18.858666-30.848c29.866667-58.282667 88.021333-156.330667 139.221333-157.866667 41.6-1.322667 64.256 39.893333 82.474667 72.96 2.176 3.925333 4.266667 7.850667 6.528 11.648 2.176-2.389333 4.266667-4.992 6.741333-7.722667 13.312-15.573333 31.616-36.949333 62.08-32.682666 31.530667 4.266667 68.266667 61.397333 93.184 108.458666a24.576 24.576 0 0 1-21.674667 36.138667z m-227.498667-171.776h-1.28c-23.594667 0.725333-68.736 40.192-124.586666 148.693333a4.266667 4.266667 0 0 0 3.669333 5.973333h349.866667a7.509333 7.509333 0 0 0 6.613333-11.050666c-31.914667-59.733333-61.994667-96.981333-80.469333-99.584-21.333333-2.944-34.133333 12.245333-46.933334 26.88-3.541333 4.266667-6.954667 8.149333-10.453333 11.648 5.504 7.978667 10.965333 13.824 16.341333 15.146666a8.533333 8.533333 0 0 1-4.266666 16.554667c-17.706667-4.266667-29.397333-25.6-42.922667-50.133333-16.426667-30.037333-35.242667-64.128-65.578667-64.128z"
				fill="#740E62" p-id="17715"></path>
			<path
				d="M778.794667 797.610667h-159.616a8.533333 8.533333 0 0 1 0-17.066667h159.616a7.637333 7.637333 0 0 0 7.296-9.941333c-10.496-32.64-23.808-53.12-34.688-53.376-8.192-0.256-13.013333 3.413333-22.314667 10.965333-15.189333 12.330667-36.010667 29.226667-89.216 29.226667a8.533333 8.533333 0 0 1 0-17.066667c47.146667 0 64.512-14.08 78.464-25.6 9.557333-7.765333 18.56-15.104 33.493333-14.762667 19.754667 0.469333 36.736 22.442667 50.517334 65.237334a24.746667 24.746667 0 0 1-23.552 32.213333z"
				fill="#740E62" p-id="17716"></path>
			<!-- <animateTransform attributeName="transform" attributeType="XML" type="rotate" from="0 512 512"
				to="360 512 512" dur="10s" repeatCount="indefinite" /> -->
		</g>

	</svg>