<svg t="1718433428364" class="icon" viewBox="0 0 2001 1024" version="1.1" xmlns="http://www.w3.org/2000/svg" p-id="9984"
	xmlns:xlink="http://www.w3.org/1999/xlink" width="390.8203125" height="200">
	<path
		d="M20.753433 1023.896233A227.042554 227.042554 0 0 0 166.027462 965.994156h-30.196245a215.939467 215.939467 0 0 0 290.548058 0h-29.573642a215.939467 215.939467 0 0 0 290.548058 0h-29.677409a215.939467 215.939467 0 0 0 290.548058 0h-29.573641a215.939467 215.939467 0 0 0 290.548057 0h-29.781176a226.938787 226.938787 0 0 0 145.274029 57.902077c27.08323 1.245206 26.979463-40.884262 0-41.506866a180.969933 180.969933 0 0 1-115.59662-45.657552 21.791104 21.791104 0 0 0-29.781176 0 172.357259 172.357259 0 0 1-231.19324 0 21.687337 21.687337 0 0 0-29.677409 0 172.357259 172.357259 0 0 1-231.19324 0 21.791104 21.791104 0 0 0-29.781176 0 172.357259 172.357259 0 0 1-231.19324 0 21.687337 21.687337 0 0 0-29.677409 0 172.357259 172.357259 0 0 1-231.19324 0 21.791104 21.791104 0 0 0-29.781176 0A180.451097 180.451097 0 0 1 20.753433 981.870532c-26.979463 1.141439-27.186997 43.270907 0 41.506865z"
		fill="#49494A" p-id="9985">
		<animateTransform attributeName="transform" type="translate" from="-1300 0" to="0 0" dur="4s"
			repeatCount="indefinite" />
	</path>
	<path
		d="M20.753433 1023.896233A227.042554 227.042554 0 0 0 166.027462 965.994156h-30.196245a215.939467 215.939467 0 0 0 290.548058 0h-29.573642a215.939467 215.939467 0 0 0 290.548058 0h-29.677409a215.939467 215.939467 0 0 0 290.548058 0h-29.573641a215.939467 215.939467 0 0 0 290.548057 0h-29.781176a226.938787 226.938787 0 0 0 145.274029 57.902077c27.08323 1.245206 26.979463-40.884262 0-41.506866a180.969933 180.969933 0 0 1-115.59662-45.657552 21.791104 21.791104 0 0 0-29.781176 0 172.357259 172.357259 0 0 1-231.19324 0 21.687337 21.687337 0 0 0-29.677409 0 172.357259 172.357259 0 0 1-231.19324 0 21.791104 21.791104 0 0 0-29.781176 0 172.357259 172.357259 0 0 1-231.19324 0 21.687337 21.687337 0 0 0-29.677409 0 172.357259 172.357259 0 0 1-231.19324 0 21.791104 21.791104 0 0 0-29.781176 0A180.451097 180.451097 0 0 1 20.753433 981.870532c-26.979463 1.141439-27.186997 43.270907 0 41.506865z"
		fill="#49494A" p-id="9985">
		<animateTransform attributeName="transform" type="translate" from="0 0" to="1300 0" dur="4s"
			repeatCount="indefinite" />
	</path>
	<path
		d="M20.753433 1023.896233A227.042554 227.042554 0 0 0 166.027462 965.994156h-30.196245a215.939467 215.939467 0 0 0 290.548058 0h-29.573642a215.939467 215.939467 0 0 0 290.548058 0h-29.677409a215.939467 215.939467 0 0 0 290.548058 0h-29.573641a215.939467 215.939467 0 0 0 290.548057 0h-29.781176a226.938787 226.938787 0 0 0 145.274029 57.902077c27.08323 1.245206 26.979463-40.884262 0-41.506866a180.969933 180.969933 0 0 1-115.59662-45.657552 21.791104 21.791104 0 0 0-29.781176 0 172.357259 172.357259 0 0 1-231.19324 0 21.687337 21.687337 0 0 0-29.677409 0 172.357259 172.357259 0 0 1-231.19324 0 21.791104 21.791104 0 0 0-29.781176 0 172.357259 172.357259 0 0 1-231.19324 0 21.687337 21.687337 0 0 0-29.677409 0 172.357259 172.357259 0 0 1-231.19324 0 21.791104 21.791104 0 0 0-29.781176 0A180.451097 180.451097 0 0 1 20.753433 981.870532c-26.979463 1.141439-27.186997 43.270907 0 41.506865z"
		fill="#49494A" p-id="9985">
		<animateTransform attributeName="transform" type="translate" from="1300 0" to="2600 0" dur="4s"
			repeatCount="indefinite" />
	</path>
</svg>