<?xml version="1.0" standalone="no"?><!DOCTYPE svg PUBLIC "-//W3C//DTD SVG 1.1//EN" "http://www.w3.org/Graphics/SVG/1.1/DTD/svg11.dtd"><svg t="1718433903418" class="icon" viewBox="0 0 1024 1024" version="1.1" xmlns="http://www.w3.org/2000/svg" p-id="44595" xmlns:xlink="http://www.w3.org/1999/xlink" width="200" height="200"><path d="M117.557333 745.482667C250.88 444.352 506.666667 356.458667 619.52 326.858667a10.421333 10.421333 0 0 1 1.504-0.277334c84.181333-9.322667 89.6 11.093333 75.04 36.768a10.122667 10.122667 0 0 1-3.008 3.274667C549.952 467.733333 413.024 765.077333 351.765333 928.362667c-3.658667 9.749333-16.992 9.045333-18.826666-1.205334-12.64-70.570667-17.514667-180.16-12.736-242.282666 0.554667-7.104-5.653333-12.949333-12.554667-11.093334-52.842667 14.208-127.274667 58.24-176.469333 84.501334a9.781333 9.781333 0 0 1-13.621334-12.8z" fill="#F6BF34" p-id="44596"></path><path d="M98.048 736.853333c137.237333-310.016 400.885333-400.426667 516.053333-430.634666 1.6-0.426667 3.125333-0.682667 4.576-0.853334 21.76-2.4 39.381333-3.008 53.397334-1.845333 13.546667 1.130667 26.208 4.074667 35.861333 10.933333 11.221333 7.978667 16.213333 19.701333 15.701333 31.893334-0.437333 10.464-4.810667 20.117333-9.024 27.52l-18.56-10.517334c14.581333-25.674667 9.152-46.090667-75.029333-36.768a10.378667 10.378667 0 0 0-1.493333 0.277334C506.666667 356.458667 250.858667 444.341333 117.546667 745.482667a9.781333 9.781333 0 0 0 13.621333 12.8l10.048 18.816c-27.008 14.421333-55.061333-13.397333-43.178667-40.256zM331.84 920.746667c-11.818667-70.645333-16.266667-175.605333-11.626667-235.882667 0.554667-7.104-5.653333-12.949333-12.544-11.093333-43.370667 11.658667-101.258667 43.392-147.818666 68.917333-10.186667 5.589333-19.84 10.88-28.661334 15.584l10.048 18.816c9.248-4.928 19.082667-10.325333 29.354667-15.957333 17.962667-9.856 37.28-20.437333 57.184-30.645334 24.917333-12.757333 49.162667-24.042667 70.186667-31.370666-3.114667 65.28 2.048 165.12 13.984 231.786666a30.666667 30.666667 0 0 0 28.48 25.642667 31.445333 31.445333 0 0 0 31.317333-20.693333c30.357333-80.906667 79.477333-195.061333 138.624-301.312 59.605333-107.061333 127.68-202.922667 195.008-250.496 3.584-2.538667 6.826667-5.909333 9.248-10.176l-18.56-10.528a10.122667 10.122667 0 0 1-2.986667 3.274666c-141.514667 99.978667-276.992 391.84-339.221333 556.224l-0.010667 0.032-0.213333 0.576c-0.64 1.642667-1.248 3.285333-1.856 4.906667-3.658667 9.749333-16.992 9.045333-18.826667-1.205333a573.002667 573.002667 0 0 1-1.088-6.261334l-0.021333-0.138666z" fill="#D97D11" p-id="44597"></path><path d="M627.264 352.533333a16 16 0 0 1-10.474667 20.064c-177.6 55.744-298.986667 199.210667-364.266666 281.354667a16 16 0 0 1-25.045334-19.904c65.386667-82.304 192-233.066667 379.733334-291.978667a16 16 0 0 1 20.053333 10.474667z" fill="#ECAF11" p-id="44598"></path><path d="M647.648 335.690667a16 16 0 0 1-0.672 22.613333C510.4 487.008 415.701333 659.381333 379.093333 763.968a16 16 0 0 1-30.208-10.581333c38.069333-108.746667 135.36-285.706667 276.128-418.346667a16 16 0 0 1 22.613334 0.661333z" fill="#ECAF11" p-id="44599"></path><path d="M427.978667 402.752c50.762667 29.12 93.514667 71.253333 124.032 122.016 44.48-66.741333 92.405333-123.776 141.045333-158.144a10.122667 10.122667 0 0 0 3.008-3.274667c14.56-25.674667 9.141333-46.08-75.04-36.768a10.432 10.432 0 0 0-1.504 0.277334c-46.058667 12.074667-115.914667 33.866667-191.541333 75.893333z" fill="#DA8D19" p-id="44600"></path><path d="M490.645333 293.728l86.506667-49.76a21.333333 21.333333 0 0 0 10.208-13.984l16.106667-74.613333 10.496-48.661334c3.424-15.850667 22.581333-22.24 34.826666-11.626666l95.296 82.613333a21.333333 21.333333 0 0 0 16.576 5.056l99.04-12.16c16.832-2.058667 29.226667 15.381333 21.749334 30.592l-50.837334 103.445333a21.333333 21.333333 0 0 0 0.597334 19.946667l47.178666 82.986667c8.778667 15.466667-4.085333 34.250667-21.674666 31.648l-107.616-15.925334a21.333333 21.333333 0 0 0-18.293334 6.101334l-76.490666 77.354666c-12.501333 12.64-34.08 5.333333-36.330667-12.298666l-12.106667-94.688a21.333333 21.333333 0 0 0-11.498666-16.32l-102.762667-52.192c-15.114667-7.68-15.669333-29.066667-0.970667-37.514667z" fill="#FFE24B" p-id="44601"></path><path d="M480 275.232l86.506667-49.749333 26.613333-123.274667c6.826667-31.701333 45.141333-44.48 69.653333-23.232l95.285334 82.602667 99.050666-12.16c33.642667-4.117333 58.432 30.752 43.488 61.173333l-50.837333 103.445333 47.168 82.986667c17.578667 30.912-8.16 68.501333-43.338667 63.296L745.973333 444.373333l-76.48 77.354667c-25.013333 25.28-68.16 10.688-72.672-24.586667l-12.106666-94.688-102.762667-52.202666c-30.218667-15.36-31.328-58.133333-1.941333-75.029334z m97.141333-31.253333l-86.506666 49.749333c-14.688 8.448-14.133333 29.834667 0.981333 37.514667l102.762667 52.202666a21.333333 21.333333 0 0 1 11.498666 16.32l12.106667 94.677334c2.250667 17.642667 23.829333 24.938667 36.330667 12.298666l76.490666-77.354666a21.333333 21.333333 0 0 1 18.293334-6.101334l107.616 15.925334c17.589333 2.602667 30.453333-16.192 21.674666-31.648l-47.178666-82.986667a21.333333 21.333333 0 0 1-0.597334-19.946667l50.837334-103.445333c7.466667-15.210667-4.917333-32.64-21.749334-30.581333l-99.04 12.149333a21.333333 21.333333 0 0 1-16.576-5.056l-95.296-82.602667c-12.245333-10.624-31.402667-4.234667-34.826666 11.626667L587.36 229.973333a21.333333 21.333333 0 0 1-10.218667 13.984z" fill="#D97D11" p-id="44602"></path><path d="M592.746667 288.896l48.224-27.733333a10.666667 10.666667 0 0 0 5.109333-6.997334l8.746667-40.544 5.952-27.573333a10.666667 10.666667 0 0 1 17.418666-5.802667l52.650667 45.642667a10.666667 10.666667 0 0 0 8.288 2.528l55.221333-6.773333a10.666667 10.666667 0 0 1 10.869334 15.285333L776.981333 294.4a10.666667 10.666667 0 0 0 0.298667 9.973333l26.453333 46.549334a10.666667 10.666667 0 0 1-10.826666 15.818666l-60.053334-8.885333a10.666667 10.666667 0 0 0-9.141333 3.050667l-42.677333 43.168a10.666667 10.666667 0 0 1-18.165334-6.154667l-6.794666-53.109333a10.666667 10.666667 0 0 0-5.749334-8.149334l-57.088-29.013333a10.666667 10.666667 0 0 1-0.490666-18.752z" fill="#FFED8D" p-id="44603"></path><path d="M626.229333 245.034667l-44.117333 25.376c-22.037333 12.672-21.205333 44.746667 1.461333 56.266666l52.053334 26.442667 6.08 47.509333c3.381333 26.453333 35.733333 37.408 54.496 18.442667l38.88-39.317333 54.698666 8.096c26.378667 3.904 45.685333-24.288 32.501334-47.466667l-23.669334-41.642667 25.76-52.405333c11.210667-22.816-7.381333-48.96-32.618666-45.866667l-50.517334 6.186667-49.066666-42.528c-18.378667-15.936-47.114667-6.346667-52.245334 17.418667l-13.696 63.488z m14.741334 16.128l-48.224 27.733333a10.666667 10.666667 0 0 0 0.490666 18.762667l57.088 29.002666a10.666667 10.666667 0 0 1 5.76 8.149334l6.784 53.12a10.666667 10.666667 0 0 0 18.165334 6.144l42.666666-43.168a10.666667 10.666667 0 0 1 9.152-3.050667l60.053334 8.885333A10.666667 10.666667 0 0 0 803.733333 350.933333l-26.453333-46.549333a10.666667 10.666667 0 0 1-0.298667-9.973333l28.245334-57.472a10.666667 10.666667 0 0 0-10.88-15.285334l-55.210667 6.773334a10.666667 10.666667 0 0 1-8.288-2.528l-52.650667-45.653334a10.666667 10.666667 0 0 0-17.418666 5.824l-14.698667 68.106667a10.666667 10.666667 0 0 1-5.109333 6.997333z" fill="#F9BF2A" p-id="44604"></path><path d="M321.472 505.109333a10.666667 10.666667 0 0 1-1.248 15.04c-67.818667 57.386667-127.946667 152.448-149.472 192.864a10.666667 10.666667 0 0 1-18.837333-10.026666c22.037333-41.365333 83.68-139.189333 154.528-199.125334a10.666667 10.666667 0 0 1 15.04 1.248zM455.061333 640.330667a10.666667 10.666667 0 0 1 3.274667 14.72c-45.824 72.021333-85.034667 186.410667-98.005333 230.666666a10.666667 10.666667 0 0 1-20.469334-5.994666c13.088-44.661333 52.96-161.461333 100.48-236.117334a10.666667 10.666667 0 0 1 14.72-3.274666z" fill="#FFE194" p-id="44605"></path></svg>