<svg t="1718640194832" class="icon" viewBox="0 0 1024 1024" version="1.1" xmlns="http://www.w3.org/2000/svg" p-id="3689"
	width="200" height="200">
	<g>
			<path
		d="M512 323.584c-118.784 0-215.552 96.768-215.552 215.552s96.768 215.552 215.552 215.552 215.552-96.768 215.552-215.552-96.768-215.552-215.552-215.552z m0 376.832c-89.088 0-161.792-72.704-161.792-161.792 0-89.088 72.704-161.792 161.792-161.792s161.792 72.704 161.792 161.792c0 89.6-72.704 161.792-161.792 161.792z"
		fill="#333333" p-id="3690"></path>
	<path
		d="M926.208 377.344h-29.696c-5.12-11.776-10.752-23.552-16.896-34.816l14.336-14.336c18.432-18.432 28.672-43.008 28.672-69.12s-10.24-50.688-28.672-69.12l-52.224-52.224c-36.864-36.864-101.376-36.864-138.24 0l-20.992 20.992c-11.776-5.12-24.064-10.24-36.352-14.336v-46.08c0-53.76-44.032-97.792-97.792-97.792H475.136c-54.272-0.512-97.792 43.52-97.792 97.28v46.08c-10.24 3.584-20.48 7.68-30.72 11.776l-32.256-32.256c-36.864-36.864-101.376-36.864-138.24 0L123.904 176.128c-37.888 37.888-37.888 99.84 0 138.24l23.04 23.04c-6.656 12.8-13.312 26.112-19.456 39.936h-29.696C44.032 377.344 0 420.864 0 475.136v74.24c0 53.76 44.032 97.792 97.792 97.792h10.752c5.12 19.456 12.288 38.912 20.48 58.368-21.504 24.064-33.28 50.688-33.792 76.288-0.512 24.576 9.216 47.616 28.16 66.56l52.224 52.224c35.84 35.84 97.792 36.864 134.656 3.072 2.048 1.024 4.608 2.56 7.168 3.584 11.776 6.656 23.552 12.8 26.112 13.824 11.264 5.12 23.04 9.216 34.304 13.312 2.56 22.016 11.776 43.008 26.624 58.88 18.432 19.968 43.52 30.72 70.656 30.72h74.24c51.2 0 93.184-39.424 97.28-89.6 23.04-8.192 46.08-17.92 67.584-29.696 37.376 33.28 98.304 31.744 134.144-4.096l52.224-52.224c18.432-18.432 28.672-43.008 28.672-69.12s-10.24-50.688-28.672-69.12l-5.12-5.12c8.192-18.944 15.36-38.4 20.48-57.856h10.752c53.76 0 97.792-44.032 97.792-97.792V475.136c-0.512-54.272-44.544-97.792-98.304-97.792z m44.032 171.52c0 24.064-19.456 44.032-44.032 44.032h-32.256c-12.8 0-23.552 8.704-26.624 21.504-6.144 28.16-15.872 56.832-29.184 84.48-5.12 10.24-3.072 22.528 5.12 30.72l18.432 18.432c16.896 16.896 16.896 45.056 0 61.952l-52.224 52.224c-16.896 16.896-45.056 16.896-61.952 0l-10.752-10.752c-8.704-8.704-22.528-10.24-33.28-3.584-28.672 17.92-59.392 31.744-91.648 40.96-11.776 3.072-19.456 13.824-19.456 26.112v11.776c0 24.064-19.456 44.032-44.032 44.032H475.136c-15.36 0-25.088-7.168-30.72-13.312-9.216-10.24-14.336-25.088-12.8-39.936 1.024-12.288-6.656-24.064-18.432-28.16-14.336-4.608-31.232-10.24-46.592-16.896-2.56-1.536-12.8-6.656-22.528-11.776-19.968-10.752-31.232-16.896-39.936-16.896-6.144 0-10.752 2.56-16.384 8.192l-10.752 10.752c-16.384 16.384-45.568 16.384-61.952 0l-52.224-52.224c-8.704-8.704-12.8-17.408-12.8-27.648 0.512-15.36 11.776-34.816 30.208-51.712 8.704-8.192 11.264-20.992 6.144-31.744-13.824-28.16-23.552-56.832-29.696-84.48-2.56-12.288-13.824-21.504-26.624-21.504h-32.256c-24.064 0-44.032-19.456-44.032-44.032V475.136c0-24.064 19.456-44.032 44.032-44.032h48.128c11.264 0 21.504-7.168 25.088-17.408 8.704-24.064 20.992-46.592 32.768-67.584 6.144-10.752 4.096-24.064-4.608-32.256L161.792 276.48c-16.896-16.896-16.896-45.056 0-61.952l52.224-52.224c16.384-16.384 45.568-16.384 61.952 0l45.568 45.568c8.192 8.192 20.48 10.24 30.72 5.12 19.456-9.728 39.424-17.408 59.392-23.04 11.776-3.072 19.456-13.824 19.456-26.112V97.792c0-24.064 19.456-44.032 44.032-44.032h74.24c24.064 0 44.032 19.456 44.032 44.032V163.84c0 11.776 8.192 22.528 19.456 26.112 22.016 6.144 43.52 14.848 64 25.088 10.24 5.12 23.04 3.072 31.232-5.12l34.304-34.304c16.896-16.896 45.056-16.896 61.952 0l52.224 52.224c8.192 8.192 12.8 19.456 12.8 30.72 0 11.776-4.608 22.528-12.8 30.72l-29.184 29.184c-8.704 8.704-10.24 22.528-4.096 32.768 11.776 19.456 21.504 40.448 29.696 61.952 4.096 10.752 13.824 17.408 25.088 17.408h48.128c24.064 0 44.032 19.456 44.032 44.032v74.24z"
		fill="#333333" p-id="3691"></path>
	<animateTransform attributeName="transform" type="rotate" from="0 510 510" to="360 510 510" dur="5s"
			repeatCount="indefinite" />
		</g>


</svg>