<svg xmlns="http://www.w3.org/2000/svg" xmlns:xlink="http://www.w3.org/1999/xlink" t="1718551886180" class="icon"
	viewBox="0 0 1024 1024" version="1.1" p-id="2316" width="200" height="200">
	<path
		d="M512 831.904c-19.168 0-38.304-9.92-58.144-29.76-7.808-7.808-7.808-20.48 0-28.288 7.808-7.808 20.48-7.808 28.288 0C494.336 786.08 504.128 792 512 792c7.872 0 17.664-5.92 29.856-18.144 7.808-7.808 20.48-7.808 28.288 0 7.808 7.808 7.808 20.48 0 28.288C550.304 821.984 531.168 831.904 512 831.904zM0 525.504C0 575.392 4.256 620.608 12.8 661.184 21.344 701.728 33.344 736.928 48.8 766.72 64.256 796.512 83.808 822.624 107.456 845.056 131.104 867.488 156.8 885.952 184.544 900.512 212.256 915.04 244 926.784 279.744 935.776 315.456 944.736 351.808 951.04 388.8 954.624 425.792 958.208 466.496 960 510.944 960 555.36 960 596.16 958.208 633.344 954.624 670.496 951.04 706.944 944.736 742.656 935.776 778.4 926.784 810.208 915.04 838.144 900.512 866.048 885.984 891.904 867.488 915.712 845.056 939.552 822.624 959.2 796.512 974.656 766.72 990.144 736.928 1002.208 701.728 1010.944 661.184 1019.648 620.608 1024 575.392 1024 525.504 1024 436.128 996.256 359.136 940.8 294.528 944 285.888 946.752 276.032 949.056 264.896 951.36 253.76 953.6 238.08 955.712 217.792 957.856 197.504 957.056 174.08 953.344 147.52 949.6 120.96 942.592 93.856 932.256 66.24L924.256 64.608C918.944 63.52 910.208 63.872 898.144 65.696 886.048 67.488 871.904 70.72 855.744 75.392 839.552 80.032 818.656 89.28 793.056 103.104 767.456 116.928 740.448 134.432 712 155.584 663.648 140.896 596.992 125.472 512 125.472 427.04 125.472 360.192 140.864 311.456 155.584 283.04 134.432 255.904 117.024 230.144 103.36 204.352 89.728 183.744 80.384 168.256 75.36 152.8 70.336 138.496 67.104 125.344 65.696 112.192 64.256 103.744 63.808 100 64.32 96.256 64.864 93.504 65.504 91.744 66.208 81.408 93.856 74.304 120.96 70.4 147.52 66.496 174.08 65.6 197.408 67.744 217.504 69.856 237.632 72.192 253.408 74.656 264.896 77.152 276.384 80 286.24 83.2 294.528 27.744 358.752 0 435.744 0 525.504ZM136.544 639.392C136.544 581.376 157.856 528.768 200.544 481.536 213.344 467.136 228.192 456.224 245.056 448.832 261.952 441.44 281.152 437.216 302.656 436.224 324.192 435.232 344.704 435.424 364.256 436.832 383.84 438.24 408 440.128 436.8 442.528 465.6 444.928 490.496 446.144 511.456 446.144 532.448 446.144 557.344 444.928 586.144 442.528 614.944 440.128 639.104 438.24 658.656 436.832 678.24 435.424 698.752 435.232 720.288 436.224 741.792 437.248 761.088 441.44 778.144 448.832 795.2 456.224 810.144 467.136 822.944 481.536 865.6 528.768 886.944 581.376 886.944 639.392 886.944 673.408 883.392 703.712 876.288 730.336 869.152 756.96 860.192 779.264 849.344 797.248 838.496 815.264 823.296 830.464 803.744 842.88 784.192 855.296 765.248 864.896 746.944 871.68 728.64 878.496 704.992 883.808 676 887.584 647.04 891.392 621.088 893.696 598.144 894.496 575.2 895.296 546.304 895.712 511.456 895.712 476.64 895.712 447.84 895.296 425.056 894.496 402.304 893.696 376.448 891.392 347.456 887.584 318.496 883.808 294.848 878.496 276.544 871.68 258.24 864.896 239.296 855.296 219.744 842.88 200.192 830.464 184.992 815.264 174.144 797.248 163.296 779.264 154.304 756.96 147.2 730.336 140.096 703.712 136.544 673.408 136.544 639.392ZM256 608A2 3 2520 1 0 384 608 2 3 2520 1 0 256 608zM640 608A2 3 2520 1 0 768 608 2 3 2520 1 0 640 608z"
		fill="" p-id="2317" />
		    <animate attributeName="fill" 
             values="#20B0E3;red;orange;yellow;green;cyan;blue;purple;#20B0E3" 
             dur="10s" 
             repeatCount="indefinite" />
</svg>