<svg t="1718542584522" class="icon" viewBox="0 0 1024 1024" version="1.1" xmlns="http://www.w3.org/2000/svg" p-id="5154"
	xmlns:xlink="http://www.w3.org/1999/xlink" width="200" height="200">
	<g>
		<path
			d="M928.6656 496.6912c-9.1136-38.7584-18.5856-77.4656-26.9312-116.4288-3.328-15.4112-12.0832-22.9888-26.8288-24.832-19.3536-2.4576-38.8608-4.1984-58.1632-7.0656-33.4848-4.9664-47.872-24.9344-43.4688-58.9312 2.2016-17.0496 3.8912-34.1504 6.8096-59.7504-3.7888-4.7104-9.5232-17.8176-19.4048-22.9376-37.376-19.5072-75.5712-37.6832-114.688-53.3504-9.5744-3.84-25.9072 0.768-35.328 7.168-14.592 9.9328-25.8048 24.832-38.656 37.376-22.784 22.2208-49.8176 22.4256-72.3968 0.512-12.9024-12.544-25.4464-25.4464-38.1952-38.0928-11.0592-10.9568-23.2448-14.5408-38.2464-7.424-37.376 17.7664-75.0592 35.0208-112.5888 52.48-14.4896 6.7584-20.9408 17.8176-18.688 33.9968 2.4576 17.8176 4.352 35.6864 6.5536 53.504 3.6352 29.1328-11.6224 50.176-40.7552 54.784-19.3024 3.0208-38.7072 5.4784-58.1632 7.1168-18.2272 1.536-27.9552 10.496-31.7952 28.416-7.8848 36.6592-16.896 73.0624-25.4976 109.5168-4.4544 18.8416-0.512 33.3312 18.2784 42.9056 14.592 7.424 28.0576 16.9472 41.9328 25.7536 28.4672 18.0224 34.2016 43.4688 16.0768 71.5264-8.9088 13.7728-17.7152 27.648-27.1872 41.0112-10.7008 15.104-9.3184 28.6208 2.4064 42.5472 14.08 16.7424 27.0848 34.4064 41.1648 51.1488 55.7568 66.3552 35.6864 64.4096 120.3712 34.7136 0.7168-0.256 1.4848-0.4608 2.2016-0.7168 30.9248-10.4448 55.7568 1.28 66.9696 31.6416 5.9392 16.128 12.0832 32.2048 17.3568 48.5376 5.2736 16.4352 15.5136 23.8592 33.024 23.552 34.4064-0.6144 68.8128-0.1536 103.2192-0.1536 42.7008 0 42.7008 0 56.832-39.3216 3.6864-10.2912 7.4752-20.5312 11.2128-30.8224 11.9296-32.8704 34.8672-44.2368 67.584-33.1776 16.9984 5.7344 33.536 14.2336 50.9952 16.8448 11.2128 1.6896 27.904-1.28 34.8672-8.8576 27.9552-30.464 53.0944-63.5392 79.3088-95.5904 10.2912-12.5952 10.4448-25.1392 1.0752-38.5536-8.4992-12.1856-14.8992-25.9584-24.32-37.2736-24.0128-28.8256-14.848-65.28 19.0464-81.4592 13.312-6.3488 24.8832-16.2816 37.9392-23.2448 15.6672-8.2944 19.9168-20.5824 16.0768-37.0688z"
			fill="#9bc6fc" p-id="5155"></path>
		<path d="M357.6832 519.0144a172.3392 166.4512 90 1 0 332.9024 0 172.3392 166.4512 90 1 0-332.9024 0Z"
			fill="#FEC963" p-id="5156"></path>
		<path
			d="M444.2624 938.6496c-28.2624 0-47.7184-14.2848-56.4224-41.3696-4.4544-13.9264-9.728-28.16-14.848-41.8816l-3.5328-9.5232c-7.7824-21.1456-21.504-27.5456-43.2128-20.224l-2.1504 0.6656c-8.704 3.0208-16.3328 5.8368-23.1424 8.2944-60.9792 22.0672-72.2432 22.0672-110.592-26.3168-5.9904-7.5264-12.7488-16.0768-21.2992-26.2656-7.7312-9.216-15.2064-18.688-22.4256-27.8528-7.1168-9.0624-14.4896-18.432-21.9136-27.2384-19.712-23.3984-21.0432-49.664-3.7888-74.0352 8.8064-12.4416 17.3568-25.7024 25.6-38.5024l3.1232-4.864c6.1952-9.6256 8.6016-18.0736 7.0656-25.0368-1.9456-8.8064-10.496-15.8208-17.3568-20.1728-3.9936-2.5088-7.936-5.12-11.9296-7.68-10.752-7.0144-20.9408-13.6192-31.4368-18.9952-19.8144-10.0864-41.4208-30.7712-31.6416-72.0896 2.2528-9.5232 4.5056-19.0464 6.8096-28.5696 6.9632-29.184 14.1824-59.3408 20.5824-89.0368 6.3488-29.3888 25.2928-46.2336 54.8864-48.7424 19.4048-1.6384 39.3728-4.096 61.0304-7.4752 18.7904-2.9696 27.0848-14.1824 24.6784-33.4336-0.9216-7.3728-1.792-14.7456-2.6624-22.1184-1.3824-11.6224-2.7648-23.6032-4.4032-35.2256-3.7888-27.392 8.0384-48.9472 33.28-60.7232 12.6464-5.888 25.2928-11.7248 37.9392-17.6128 27.3408-12.6464 55.6544-25.7536 83.2512-38.912 23.9104-11.3664 47.8208-6.9632 67.3792 12.4416 5.5296 5.4784 10.9568 10.9568 16.4352 16.4864 8.1408 8.192 16.2816 16.384 24.576 24.4224 15.3088 14.848 30.3616 14.6944 45.9264-0.512 4.096-3.9936 8.0896-8.2944 12.3392-12.9024 9.6768-10.4448 19.6608-21.2992 32.4608-29.952 15.616-10.5984 41.0624-17.4592 59.5456-10.0864 39.2704 15.7184 80.384 34.816 125.7472 58.4704 13.4144 7.0144 21.3504 19.7632 26.112 27.392 0.8192 1.3312 1.536 2.56 2.2016 3.4304 3.8912 4.8128 5.5808 10.8032 4.864 16.9472-1.0752 9.3184-1.9456 17.5616-2.816 25.1392-1.6896 15.2576-3.0208 27.2896-4.608 39.6288-3.1232 24.4224 4.0448 34.304 27.4432 37.7856 12.288 1.8432 25.0368 3.2768 37.376 4.6592 8.2944 0.9216 16.5888 1.8432 24.832 2.9184 25.8048 3.2768 43.0592 19.2 48.5376 44.8 6.7072 31.232 14.2336 62.9248 21.504 93.5936 2.5088 10.496 4.9664 20.992 7.424 31.488 6.7584 28.7744-3.5328 52.1216-29.0304 65.6896-5.376 2.8672-10.8032 6.5024-16.5888 10.3936-7.8336 5.2736-15.9232 10.7008-25.2416 15.1552-11.6224 5.5296-19.2 14.0288-21.3504 23.8592-2.048 9.2672 1.024 19.3024 8.5504 28.3648 7.2192 8.6528 12.6464 17.8176 17.92 26.6752 3.2256 5.376 6.2464 10.496 9.472 15.104 16.1792 23.1936 15.36 47.7696-2.2016 69.3248-7.7824 9.5232-15.4624 19.0976-23.1424 28.672-20.1216 25.088-40.9088 51.0464-63.232 75.3664-13.4656 14.6432-39.3216 19.5072-57.9072 16.7424-15.4112-2.304-29.2352-7.7312-42.5472-12.9536-5.6832-2.2528-11.0592-4.352-16.384-6.144-23.3472-7.8848-35.2256-1.9968-43.8272 21.76l-5.12 13.9776c-2.3552 6.4-4.6592 12.8-6.9632 19.2-18.5344 51.712-27.0848 57.6-82.944 57.6h-0.1024c-11.0592 0-22.1184-0.0512-33.1776-0.1024-25.4464-0.1024-51.8144-0.2048-77.568 0.256-0.3584-0.1536-0.8704-0.1536-1.3824-0.1536z m-102.7072-161.8944c32.1024 0 58.5216 18.9952 71.1168 53.1456l3.4816 9.472c5.2736 14.2336 10.7008 28.928 15.5136 43.8272 2.6112 8.1408 4.608 9.5232 13.2608 9.4208 26.2656-0.4608 52.8384-0.3584 78.5408-0.256 11.0592 0.0512 21.9648 0.1024 33.1264 0.1024 12.3904 0 25.1904 0 29.0304-1.2288 2.4064-3.1232 6.5024-14.6432 10.5472-25.8048 2.3552-6.5536 4.7104-13.0048 7.0656-19.5072l5.0688-13.824c16.9984-46.9504 55.0912-65.536 101.888-49.7152 6.4 2.1504 12.544 4.5568 18.4832 6.912 11.4688 4.5056 22.272 8.7552 32.4608 10.2912 6.2976 0.9216 14.9504-0.9216 17.5616-2.7136 21.1968-23.0912 41.3696-48.2816 60.8768-72.6528 7.7824-9.728 15.5648-19.4048 23.4496-29.0304 3.9424-4.864 4.864-6.9632 0.1024-13.7728-4.1984-5.9904-7.7824-12.032-11.264-17.8688-4.5568-7.6288-8.8576-14.848-13.7216-20.736-16.8448-20.224-23.296-44.288-18.176-67.7376 5.1712-23.7056 22.1184-43.9808 46.4896-55.6032 6.2976-3.0208 12.6976-7.2704 19.456-11.8272 6.4512-4.3008 13.1072-8.8064 20.5824-12.7488 6.1952-3.2768 7.9872-5.1712 5.8368-14.4896-2.4576-10.4448-4.9152-20.8896-7.424-31.3344-7.3216-30.9248-14.8992-62.8736-21.7088-94.5664-1.536-7.0656-3.1232-7.9872-9.3184-8.7552-8.0384-1.024-16.0768-1.9456-24.1664-2.816-12.7488-1.4336-25.9584-2.9184-39.0656-4.864-48.5376-7.2192-72.704-39.7312-66.3552-89.2416 1.536-11.9808 2.816-23.808 4.5056-38.8096 0.5632-5.2736 1.1776-10.9056 1.8944-16.9472-1.9968-3.1744-5.632-8.8576-7.7312-10.0352-43.776-22.8352-83.4048-41.2672-121.088-56.3712-3.1744-0.4608-11.7248 1.6384-16.9984 5.2224-8.448 5.7344-16.2816 14.1824-24.576 23.1424-4.4544 4.8128-9.0624 9.7792-13.9776 14.592-33.536 32.7168-76.8 32.9728-110.1824 0.5632-8.4992-8.2432-16.8448-16.64-25.1904-25.0368-5.376-5.4272-10.752-10.8544-16.1792-16.2304-6.656-6.5536-9.728-6.144-15.1552-3.5328-27.8528 13.2608-56.2176 26.4192-83.712 39.1168-12.5952 5.8368-25.2416 11.6736-37.8368 17.5616-6.7072 2.9696-8.0384 5.3248-7.0656 12.4928 1.6896 12.1344 3.1232 24.3712 4.5056 36.1984 0.8704 7.2704 1.6896 14.5408 2.6112 21.8112 5.4784 43.8272-19.9168 77.8752-63.232 84.6848-22.7328 3.584-43.776 6.144-64.3072 7.8848-8.8064 0.768-11.52 2.4064-13.7216 12.544-6.5024 30.208-13.7728 60.6208-20.8384 90.0608-2.2528 9.472-4.5568 18.944-6.7584 28.4672-3.1744 13.3632-0.256 16.384 7.7312 20.4288 12.6976 6.4512 24.3712 14.08 35.6864 21.4528 3.7888 2.4576 7.5776 4.9152 11.4176 7.3728 25.8048 16.3328 34.7648 35.7376 37.6832 49.152 2.9184 13.3632 3.0208 34.56-13.312 59.904l-3.1232 4.864c-8.5504 13.2608-17.3568 26.9824-26.7776 40.2432-4.5568 6.4-5.5296 9.4208 1.4336 17.664 7.936 9.4208 15.5136 19.0464 22.8864 28.416 7.0144 8.9088 14.2336 18.0736 21.504 26.7264 9.0112 10.7008 16.2816 19.9168 22.1696 27.3408 8.0896 10.24 17.3056 21.8624 20.5824 23.1424 4.0448 0.8192 21.4528-5.4272 38.1952-11.52 6.912-2.5088 14.6944-5.3248 23.552-8.448 0.6656-0.256 1.3824-0.4608 2.048-0.6656l0.6144-0.2048c10.3424-3.6352 20.4288-5.3248 30.0032-5.3248z m437.2992 19.8656z m-268.4416-133.3248h-1.792c-88.8832-0.9216-158.3616-70.1952-158.1568-157.696 0.1024-43.1104 17.0496-83.456 47.7184-113.6128 30.7712-30.208 71.4752-46.5408 114.8928-45.8752 87.7568 1.3312 158.72 73.5232 158.3104 160.9216-0.2048 41.5232-16.7424 80.5376-46.4896 109.8752-30.5152 29.952-71.0656 46.3872-114.4832 46.3872z m0.1536-271.104c-30.2592 0-58.624 11.5712-80.0768 32.6656-21.8112 21.4528-33.8432 50.1248-33.9456 80.8448-0.1536 61.8496 49.3056 110.848 112.5376 111.5136 31.7952 0.3072 61.3888-11.4176 83.4048-33.1264 20.992-20.6336 32.6144-48.0768 32.768-77.2608 0.3072-63.3344-49.2544-113.664-112.896-114.6368h-1.792z m137.728 114.7392h0.0512-0.0512z"
			fill="#474747" p-id="5157"></path>

		<animateTransform attributeName="transform" type="rotate" from="0 512 512" to="360 512 512" dur="5s"
			repeatCount="indefinite" />


	</g>
</svg>