<svg t="1718542566524" class="icon" viewBox="0 0 1024 1024" version="1.1" xmlns="http://www.w3.org/2000/svg" p-id="3986"
	xmlns:xlink="http://www.w3.org/1999/xlink" width="200" height="200">
	<path
		d="M738.354 195.118l-50.461 50.461c-34.573-22.878-72.621-38.297-111.881-46.296v-71.409c0-35.353-28.659-64.012-64.012-64.012s-64.012 28.659-64.012 64.012v71.409c-39.26 7.999-77.308 23.418-111.881 46.296l-50.461-50.461c-24.998-24.998-65.529-24.998-90.527 0s-24.998 65.529 0 90.527l50.461 50.461c-22.878 34.573-38.297 72.621-46.296 111.881h-71.41c-35.353 0-64.012 28.659-64.012 64.012s28.659 64.012 64.012 64.012h71.41c7.999 39.26 23.418 77.308 46.296 111.881l-50.461 50.461c-24.998 24.998-24.998 65.529 0 90.527s65.529 24.998 90.527 0l50.461-50.461c34.573 22.878 72.621 38.297 111.881 46.296v71.41c0 35.353 28.659 64.012 64.012 64.012s64.012-28.659 64.012-64.012v-71.409c39.26-7.999 77.308-23.418 111.881-46.296l50.461 50.461c24.998 24.998 65.529 24.998 90.527 0s24.998-65.529 0-90.527l-50.461-50.461c22.878-34.573 38.297-72.621 46.296-111.881h71.409c35.353 0 64.012-28.659 64.012-64.012s-28.659-64.012-64.012-64.012h-71.41c-7.998-39.26-23.418-77.308-46.296-111.881l50.461-50.461c24.998-24.998 24.998-65.529 0-90.527s-65.527-24.999-90.526-0.001z"
		fill="#FFFFFF" p-id="3987"></path>
	<path
		d="M512 83.862c24.269 0 44.012 19.744 44.012 44.012v87.745l16.007 3.261c37.664 7.673 72.936 22.268 104.837 43.377l13.626 9.016 11.553-11.553 50.461-50.461c8.313-8.313 19.365-12.891 31.122-12.891s22.809 4.578 31.121 12.891c17.161 17.16 17.161 45.083 0 62.243l-50.46 50.461-11.553 11.553 9.016 13.626c21.11 31.902 35.704 67.174 43.377 104.837l3.262 16.007h87.746c24.269 0 44.012 19.744 44.012 44.012s-19.744 44.012-44.012 44.012H808.38l-3.262 16.007c-7.673 37.663-22.267 72.935-43.377 104.837l-9.016 13.626 11.553 11.553 50.461 50.46c17.16 17.161 17.16 45.083 0 62.243-8.313 8.313-19.365 12.891-31.122 12.891s-22.809-4.578-31.122-12.891l-50.461-50.461-11.553-11.553-13.626 9.016c-31.901 21.11-67.173 35.704-104.837 43.377l-16.007 3.261v87.745c0 24.269-19.744 44.012-44.012 44.012s-44.013-19.744-44.013-44.012V808.38l-16.007-3.261c-37.663-7.674-72.936-22.268-104.836-43.377l-13.626-9.016-11.553 11.553-50.461 50.461c-8.313 8.313-19.365 12.891-31.122 12.891s-22.809-4.578-31.121-12.891c-17.161-17.161-17.161-45.083 0-62.243l50.461-50.461 11.553-11.553-9.016-13.626c-21.11-31.902-35.704-67.174-43.377-104.837l-3.262-16.007h-87.746c-24.269 0-44.012-19.744-44.012-44.012s19.744-44.012 44.012-44.012h87.746l3.262-16.007c7.673-37.663 22.267-72.935 43.377-104.837l9.016-13.626-11.553-11.553-50.461-50.461c-17.16-17.16-17.16-45.083 0-62.243 8.314-8.314 19.366-12.892 31.12-12.891 11.758 0.001 22.812 4.579 31.124 12.891l50.461 50.461 11.553 11.553 13.626-9.016c31.901-21.11 67.173-35.704 104.836-43.377l16.007-3.261v-87.745c0-24.271 19.745-44.015 44.013-44.015m0-20c-35.353 0-64.013 28.659-64.013 64.012v71.409c-39.26 7.999-77.308 23.418-111.881 46.296l-50.461-50.461c-12.498-12.498-28.883-18.747-45.264-18.749-16.384-0.001-32.763 6.248-45.264 18.749-24.998 24.999-24.999 65.529 0 90.527l50.461 50.461c-22.877 34.573-38.297 72.621-46.295 111.881h-71.41c-35.353 0-64.012 28.659-64.012 64.012s28.659 64.012 64.012 64.012h71.41c7.999 39.26 23.418 77.308 46.295 111.881l-50.461 50.461c-24.998 24.998-24.998 65.529 0 90.527 12.498 12.498 28.883 18.749 45.264 18.749 16.384 0 32.763-6.248 45.264-18.749l50.461-50.461c34.573 22.878 72.621 38.297 111.881 46.296v71.409c0 35.353 28.66 64.012 64.013 64.012s64.012-28.659 64.012-64.012v-71.409c39.26-7.999 77.308-23.418 111.881-46.296l50.461 50.461c12.499 12.499 28.881 18.749 45.264 18.749s32.765-6.25 45.264-18.749c24.998-24.999 24.998-65.529 0-90.527l-50.461-50.461c22.877-34.573 38.297-72.621 46.295-111.881h71.41c35.353 0 64.012-28.659 64.012-64.012s-28.659-64.012-64.012-64.012h-71.41c-7.999-39.26-23.418-77.308-46.295-111.881l50.46-50.461c24.999-24.998 24.999-65.529 0-90.527-12.499-12.499-28.881-18.749-45.264-18.749s-32.765 6.25-45.264 18.749l-50.461 50.461c-34.573-22.878-72.621-38.297-111.881-46.296v-71.409c0.001-35.353-28.658-64.012-64.011-64.012z"
		fill="" p-id="3988"></path>
	<path
		d="M761.621 228.288l-70.419 70.419c-45.158-38.027-99.54-59.438-155.096-64.235v-99.595c0-13.313-10.793-24.106-24.106-24.106-13.313 0-24.106 10.793-24.106 24.106v99.595c-55.556 4.797-109.938 26.208-155.096 64.235l-70.419-70.419c-9.414-9.414-24.677-9.414-34.091 0s-9.414 24.677 0 34.091l70.419 70.419c-38.027 45.158-59.438 99.54-64.235 155.096h-99.595c-13.313 0-24.106 10.793-24.106 24.106 0 13.313 10.793 24.106 24.106 24.106h99.595c4.797 55.556 26.208 109.938 64.235 155.096l-70.419 70.419c-9.414 9.414-9.414 24.677 0 34.091s24.677 9.414 34.091 0l70.419-70.419c45.158 38.027 99.54 59.438 155.096 64.235v99.595c0 13.314 10.793 24.106 24.106 24.106 13.314 0 24.106-10.793 24.106-24.106v-99.595c55.556-4.797 109.938-26.208 155.096-64.235l70.419 70.419c9.414 9.414 24.677 9.414 34.091 0s9.414-24.677 0-34.091l-70.419-70.419c38.027-45.158 59.438-99.54 64.235-155.096h99.595c13.313 0 24.106-10.793 24.106-24.106s-10.793-24.106-24.106-24.106h-99.595c-4.797-55.556-26.208-109.938-64.235-155.096l70.419-70.419c9.414-9.414 9.414-24.677 0-34.091s-24.677-9.414-34.091 0z m-102.83 430.503c-81.071 81.071-212.512 81.071-293.583 0s-81.071-212.512 0-293.583 212.512-81.071 293.583 0 81.071 212.513 0 293.583z"
		fill="#00DFD4" p-id="3989"></path>
	<path
		d="M647.765 376.236c74.981 74.981 74.981 196.548 0 271.529s-196.548 74.981-271.529 0-74.981-196.548 0-271.529c74.98-74.981 196.548-74.981 271.529 0z"
		fill="#3A1919" p-id="3990"></path>
	<path
		d="M512 340c45.943 0 89.136 17.891 121.623 50.378C666.109 422.864 684 466.057 684 512s-17.891 89.136-50.377 121.622C601.136 666.109 557.943 684 512 684s-89.136-17.891-121.623-50.378C357.891 601.136 340 557.943 340 512s17.891-89.136 50.377-121.622C422.864 357.891 466.057 340 512 340m0-20c-49.137 0-98.274 18.745-135.765 56.235-74.98 74.981-74.98 196.548 0 271.529C413.726 685.255 462.863 704 512 704s98.274-18.745 135.765-56.236c74.98-74.981 74.98-196.548 0-271.529C610.274 338.745 561.137 320 512 320z"
		fill="" p-id="3991"></path>
	<path
		d="M346.992 559.523c-16.027-58.612-1.439-123.386 43.997-168.822 45.223-45.223 109.603-59.887 167.998-44.221 29.307 7.863-204.064 242.047-211.995 213.043z"
		fill="#F96765" p-id="3992"></path>
	<path
		d="M379.861 535.864a7.376 7.376 0 0 1 1.329-1.094 400.345 400.345 0 0 0 19.332-13.216c3.36-2.416 8.158-1.711 10.755 1.684 5.288 6.965 10.57 13.96 15.859 20.934 2.348 3.069 1.922 7.534-0.871 10.442a8.217 8.217 0 0 1-0.933 0.837 456.366 456.366 0 0 1-20.691 15.17c-3.774 2.616-8.769 1.65-11.105-2.108-4.834-7.659-9.651-15.297-14.485-22.956-2.011-3.221-1.571-7.21 0.81-9.693"
		fill="#FFFFFF" p-id="3993"></path>
	<path
		d="M400.01 579.094c-5.096 0-9.737-2.574-12.418-6.887l-14.459-22.915c-3.688-5.9-2.993-13.404 1.675-18.273a14.505 14.505 0 0 1 2.595-2.136 396.996 396.996 0 0 0 19.005-12.991 14.58 14.58 0 0 1 8.58-2.767c4.612 0 9.042 2.19 11.849 5.858 3.005 3.957 5.991 7.901 8.978 11.848l6.9 9.11c4.378 5.721 3.784 14.123-1.399 19.521a15.342 15.342 0 0 1-1.736 1.554 464.591 464.591 0 0 1-20.954 15.362c-2.564 1.776-5.545 2.716-8.616 2.716z m4.977-51.969a0.637 0.637 0 0 0-0.378 0.111 408.51 408.51 0 0 1-19.642 13.426 0.441 0.441 0 0 0-0.067 0.06c-0.107 0.111-0.256 0.573 0.088 1.123l14.468 22.931c0.073 0.116 0.198 0.318 0.554 0.318 0.211 0 0.429-0.077 0.646-0.228a452.667 452.667 0 0 0 20.379-14.941c0.061-0.047 0.108-0.084 0.188-0.167 0.457-0.476 0.518-1.119 0.354-1.333l-6.926-9.145c-2.982-3.94-5.965-7.88-8.949-11.81a0.904 0.904 0 0 0-0.715-0.345z"
		fill="" p-id="3994"></path>
	<path
		d="M354.246 555.198a5.437 5.437 0 0 1 1.336-1.023 406.181 406.181 0 0 0 15.595-8.931c2.747-1.64 6.391-0.71 8.191 2.122 3.645 5.819 7.319 11.634 10.97 17.466 1.521 2.4 1.11 5.532-0.835 7.548a5.747 5.747 0 0 1-1.166 0.963 464.177 464.177 0 0 1-16.483 10.02 6.047 6.047 0 0 1-8.38-2.37 6444.297 6444.297 0 0 1-10.059-18.601c-1.343-2.476-0.911-5.377 0.831-7.194"
		fill="#FFFFFF" p-id="3995"></path>
	<path
		d="M368.802 591.187a13.041 13.041 0 0 1-11.49-6.874 6469.245 6469.245 0 0 1-10.06-18.6c-2.758-5.089-1.981-11.267 1.938-15.358a12.4 12.4 0 0 1 3.005-2.308 401.151 401.151 0 0 0 15.369-8.8 12.775 12.775 0 0 1 6.559-1.812c4.526 0 8.695 2.309 11.153 6.176 1.812 2.896 3.608 5.75 5.404 8.605 1.865 2.964 3.73 5.931 5.59 8.9 3.203 5.057 2.521 11.661-1.671 16.062a12.815 12.815 0 0 1-2.522 2.082 473.103 473.103 0 0 1-16.711 10.157 13.137 13.137 0 0 1-6.564 1.77z m-8.852-31.422a6109.65 6109.65 0 0 0 9.225 17.058 459.59 459.59 0 0 0 14.783-8.99c-1.717-2.74-3.423-5.451-5.128-8.162-1.653-2.628-3.306-5.256-4.952-7.884a417.567 417.567 0 0 1-13.928 7.978z"
		fill="" p-id="3996"></path>
	<path
		d="M535.864 379.861a7.376 7.376 0 0 0-1.094 1.329 400.345 400.345 0 0 1-13.216 19.332c-2.416 3.36-1.711 8.158 1.683 10.755 6.965 5.288 13.96 10.57 20.934 15.859 3.069 2.348 7.534 1.922 10.442-0.871 0.291-0.281 0.577-0.591 0.837-0.933a456.366 456.366 0 0 0 15.17-20.691c2.616-3.774 1.65-8.769-2.108-11.105-7.659-4.834-15.297-9.651-22.956-14.485-3.22-2.011-7.209-1.571-9.692 0.81"
		fill="#FFFFFF" p-id="3997"></path>
	<path
		d="M548.752 435.66c-0.001 0-0.001 0 0 0-3.246 0-6.3-1.024-8.834-2.963a9188.103 9188.103 0 0 0-9.126-6.912c-3.933-2.977-7.865-5.953-11.788-8.932-6.346-4.856-7.742-14.008-3.134-20.417a396.203 396.203 0 0 0 13.007-19.023 14.378 14.378 0 0 1 2.135-2.598c2.719-2.606 6.32-4.038 10.148-4.038 2.853 0 5.656 0.81 8.106 2.341l22.981 14.501c3.386 2.104 5.723 5.45 6.539 9.396 0.824 3.98-0.056 8.214-2.414 11.616a466.246 466.246 0 0 1-15.397 21c-0.402 0.532-0.928 1.12-1.507 1.678-2.922 2.808-6.727 4.351-10.716 4.351z m-7.592-50.883c-0.188 0-0.364 0.053-0.45 0.136a419.773 419.773 0 0 1-13.494 19.726c-0.18 0.25-0.125 0.774 0.275 1.081 3.896 2.958 7.823 5.93 11.751 8.902 3.054 2.312 6.108 4.624 9.159 6.938 0.113 0.086 0.25 0.1 0.351 0.1 0.346 0 0.724-0.165 1.012-0.441 0.075-0.073 0.106-0.112 0.108-0.114a452.659 452.659 0 0 0 14.99-20.443c0.258-0.371 0.245-0.665 0.216-0.808a0.526 0.526 0 0 0-0.262-0.37l-22.997-14.51a1.243 1.243 0 0 0-0.659-0.197z"
		fill="" p-id="3998"></path>
	<path
		d="M555.198 354.246a5.437 5.437 0 0 0-1.023 1.336 406.984 406.984 0 0 1-8.931 15.596c-1.64 2.747-0.71 6.391 2.122 8.191 5.819 3.645 11.634 7.319 17.466 10.97 2.4 1.521 5.532 1.11 7.548-0.835 0.366-0.336 0.688-0.731 0.963-1.166a464.177 464.177 0 0 0 10.02-16.483 6.047 6.047 0 0 0-2.37-8.38 6444.297 6444.297 0 0 0-18.601-10.059c-2.476-1.344-5.377-0.912-7.194 0.83"
		fill="#FFFFFF" p-id="3999"></path>
	<path
		d="M568.033 398.262c-0.001 0 0 0 0 0-2.47 0-4.872-0.695-6.948-2.011-2.938-1.84-5.905-3.705-8.869-5.57-2.855-1.796-5.71-3.592-8.566-5.38-6.111-3.887-8.033-11.656-4.416-17.713a399.41 399.41 0 0 0 8.791-15.351 12.512 12.512 0 0 1 2.361-3.076c2.368-2.27 5.553-3.536 8.934-3.536 2.22 0 4.436 0.565 6.408 1.635 6.19 3.337 12.396 6.688 18.606 10.062a12.95 12.95 0 0 1 6.356 7.919c0.972 3.422 0.523 7.012-1.263 10.109a474.458 474.458 0 0 1-10.182 16.747 12.651 12.651 0 0 1-2.067 2.502 13.2 13.2 0 0 1-9.145 3.663z m-16.247-24.384c2.606 1.633 5.244 3.292 7.884 4.952 2.719 1.71 5.438 3.421 8.162 5.128a462.905 462.905 0 0 0 8.991-14.784 6535.089 6535.089 0 0 0-17.059-9.224 411.966 411.966 0 0 1-7.978 13.928z"
		fill="" p-id="4000"></path>
	<g>
		<!-- 扳手 -->
		<path
			d="M619.052 401.632c-12.69-12.69-27.05-22.687-42.369-30.013l-43.468 43.468c21.799 33.095 18.141 78.031-10.978 107.15s-74.055 32.777-107.15 10.978l-43.468 43.469c7.326 15.319 17.323 29.679 30.013 42.369 43.876 43.876 107.672 55.68 162.274 35.428l174.438 174.438c25.024 25.024 65.597 25.024 90.621 0s25.024-65.597 0-90.621l-174.46-174.46c20.217-54.588 8.405-118.349-35.453-162.206z"
			fill="#C0F2FF" p-id="4001"></path>
		<path
			d="M580.275 396.311a133.895 133.895 0 0 1 24.635 19.462c18.447 18.447 31.006 41.626 36.32 67.032 5.185 24.788 3.29 50.406-5.48 74.085l-4.453 12.023 9.065 9.066 174.46 174.46c17.187 17.187 17.187 45.151 0 62.337-8.326 8.325-19.395 12.911-31.168 12.911s-22.843-4.585-31.168-12.91L578.048 640.338l-9.07-9.07-12.027 4.461c-14.933 5.539-30.618 8.347-46.619 8.347-35.72 0-69.302-13.909-94.558-39.166a133.904 133.904 0 0 1-19.462-24.635l22.338-22.338c13.52 6.102 28.226 9.278 43.286 9.278 28.121 0 54.559-10.951 74.443-30.835 17.239-17.239 28.017-40.078 30.349-64.31a105.805 105.805 0 0 0-8.805-53.406l22.352-22.353m-3.592-24.692l-43.468 43.469c21.799 33.095 18.141 78.031-10.978 107.15-16.651 16.651-38.478 24.978-60.301 24.978-16.34 0-32.678-4.666-46.848-14l-43.469 43.468c7.326 15.319 17.323 29.679 30.013 42.369 30.015 30.015 69.361 45.023 108.7 45.023 18.167 0 36.324-3.198 53.574-9.595l174.438 174.438c12.511 12.511 28.913 18.768 45.311 18.768 16.401 0 32.797-6.255 45.311-18.768 25.024-25.024 25.024-65.597 0-90.621l-174.46-174.46c20.217-54.587 8.405-118.348-35.453-162.206-12.691-12.691-27.051-22.687-42.37-30.013z"
			fill="" p-id="4002"></path>
		<path
			d="M607.385 640.851a10.655 10.655 0 0 1-7.559-3.131l-16.289-16.288c-4.175-4.174-4.175-10.942 0-15.117 4.174-4.174 10.943-4.176 15.117 0l16.289 16.288c4.175 4.174 4.175 10.942 0 15.117a10.655 10.655 0 0 1-7.558 3.131zM767.278 800.745a10.655 10.655 0 0 1-7.559-3.131L619.095 656.99c-4.175-4.175-4.175-10.942 0-15.117 4.174-4.176 10.943-4.176 15.117 0l140.625 140.624c4.175 4.175 4.175 10.942 0 15.117a10.653 10.653 0 0 1-7.559 3.131zM508.43 626.933a118.601 118.601 0 0 1-44.962-8.842c-5.11-2.094-7.557-7.934-5.463-13.045 2.094-5.11 7.929-7.555 13.045-5.463 21.711 8.894 45.96 9.746 68.28 2.396 5.241-1.726 10.897 1.124 12.626 6.37 1.728 5.246-1.124 10.898-6.37 12.626a118.772 118.772 0 0 1-37.156 5.958z"
			fill="" p-id="4007"></path>
		<animateTransform attributeName="transform" type="rotate" values="-30 512 512;30 512 512;-30 512 512;" dur="1s"
			repeatCount="indefinite" />
	</g>


	<path
		d="M415.537 506.412c0.49-0.511 1.016-0.993 1.595-1.438a564.535 564.535 0 0 0 35.832-30.568c6.126-5.677 15.746-5.641 21.663 0.222l36.377 36.397c5.91 5.857 5.451 16.354-1.197 23.274a0.392 0.392 0 0 0-0.066 0.076 656.44 656.44 0 0 1-39.23 37.038c-7.306 6.355-17.678 5.605-22.992-1.44-10.929-14.362-21.888-28.747-32.817-43.109-4.864-6.444-4.324-15.091 0.835-20.452"
		fill="#FFFFFF" p-id="4003"></path>
	<path
		d="M459.292 582.751c-6.929 0-13.257-3.122-17.361-8.564l-14.229-18.691c-6.192-8.133-12.386-16.268-18.569-24.395-6.901-9.141-6.323-21.557 1.361-29.543a21.012 21.012 0 0 1 2.377-2.138 559.88 559.88 0 0 0 35.333-30.146 22.794 22.794 0 0 1 15.541-6.085c5.986 0 11.602 2.296 15.811 6.466l36.4 36.422c8.558 8.479 8.183 23.088-0.791 32.744l-0.055 0.075-0.355 0.364c-12.511 12.836-25.851 25.431-39.648 37.434-4.492 3.906-10.108 6.057-15.815 6.057z m4.452-105.562a8.826 8.826 0 0 0-6.022 2.352 574.081 574.081 0 0 1-36.273 30.944 7.37 7.37 0 0 0-0.861 0.774c-2.89 3.004-3.013 7.789-0.298 11.386 6.167 8.105 12.359 16.238 18.551 24.369l14.25 18.719c1.475 1.955 3.671 3.019 6.202 3.019 2.33 0 4.683-0.931 6.624-2.62a652.013 652.013 0 0 0 38.635-36.461c0.093-0.104 0.188-0.205 0.285-0.303 3.868-4.098 4.443-10.198 1.241-13.37l-36.4-36.422c-1.546-1.531-3.662-2.387-5.934-2.387z"
		fill="" p-id="4004"></path>
	<path
		d="M506.412 415.537c-0.511 0.49-0.993 1.016-1.438 1.595a564.535 564.535 0 0 1-30.568 35.832c-5.677 6.126-5.641 15.746 0.222 21.663l36.397 36.377c5.857 5.91 16.354 5.451 23.274-1.197a0.392 0.392 0 0 1 0.076-0.066 656.44 656.44 0 0 0 37.038-39.23c6.355-7.307 5.605-17.678-1.44-22.992-14.362-10.929-28.747-21.888-43.109-32.817-6.444-4.864-15.091-4.324-20.452 0.835"
		fill="#FFFFFF" p-id="4005"></path>
	<path
		d="M521.43 522.135c-5.952 0-11.413-2.203-15.378-6.204l-36.372-36.353c-8.554-8.63-8.723-22.4-0.409-31.372a559.208 559.208 0 0 0 30.192-35.391 20.698 20.698 0 0 1 2.101-2.328c4.115-3.96 9.593-6.145 15.416-6.145 5.09 0 9.966 1.65 14.102 4.772l43.131 32.834c4.785 3.608 7.783 8.939 8.417 14.991 0.675 6.433-1.488 13.054-5.935 18.164-12.003 13.797-24.598 27.137-37.435 39.648l-0.375 0.352c-4.787 4.475-11.128 7.032-17.455 7.032z m-4.45-103.792c-2.186 0-4.215 0.795-5.715 2.238a7.146 7.146 0 0 0-0.737 0.812 574.517 574.517 0 0 1-30.99 36.332c-3.145 3.394-3.117 8.767 0.062 11.975l36.373 36.354c1.34 1.352 3.269 2.082 5.457 2.082 2.7 0 5.453-1.094 7.632-3.019l0.207-0.279 0.511-0.394a652.334 652.334 0 0 0 36.353-38.527c1.906-2.191 2.845-4.932 2.574-7.517-0.16-1.52-0.801-3.671-2.948-5.291l-43.134-32.836c-1.666-1.257-3.625-1.93-5.645-1.93z"
		fill="" p-id="4006"></path>

	<path
		d="M267.742806 469.814905a21.667 43.334 20.769 1 0 30.73257-81.036112 21.667 43.334 20.769 1 0-30.73257 81.036112Z"
		fill="#FFFFFF" p-id="4008"></path>
	<path
		d="M271.821 477.566a18.38 18.38 0 0 1-6.55-1.185c-8.02-3.041-13.101-11.259-14.306-23.139-1.031-10.164 0.87-22.271 5.353-34.09 8.64-22.777 23.953-38.081 38.106-38.081 2.272 0 4.477 0.398 6.549 1.185 15.281 5.797 19.13 30.4 8.952 57.229-8.638 22.778-23.951 38.081-38.104 38.081z m22.604-82.494c-6.732 0-18.211 11.105-25.017 29.046-3.673 9.684-5.318 19.784-4.514 27.712 0.614 6.053 2.661 10.445 5.342 11.462a4.39 4.39 0 0 0 1.585 0.274c6.732 0 18.21-11.104 25.015-29.045 7.866-20.738 4.765-37.054-0.827-39.175a4.389 4.389 0 0 0-1.584-0.274z"
		fill="" p-id="4009"></path>
	<path d="M278.974 424.983m-8 0a8 8 0 1 0 16 0 8 8 0 1 0-16 0Z" fill="" p-id="4010"></path>
	<path
		d="M469.85012 267.732052a21.667 43.334 69.228 1 0-81.034503 30.736813 21.667 43.334 69.228 1 0 81.034503-30.736813Z"
		fill="#FFFFFF" p-id="4011"></path>
	<path
		d="M410.982 315.553h-0.002c-14.74-0.001-25.209-5.315-28.723-14.58-5.796-15.279 10.065-34.477 36.896-44.654 9.703-3.681 19.561-5.626 28.506-5.626 14.739 0 25.209 5.313 28.724 14.579 3.042 8.02 0.261 17.272-7.831 26.053-6.924 7.513-17.246 14.119-29.065 18.602-9.705 3.68-19.562 5.626-28.505 5.626z m36.676-50.86c-7.267 0-15.407 1.631-23.541 4.716-20.738 7.866-30.892 21.008-28.771 26.6 1.258 3.316 7.54 5.544 15.633 5.545h0.002c7.266 0 15.404-1.631 23.539-4.717 9.685-3.673 18.335-9.14 23.735-14.999 4.123-4.475 6.053-8.919 5.036-11.601-1.257-3.316-7.54-5.544-15.633-5.544z"
		fill="" p-id="4012"></path>
	<path d="M424.983 278.974m-8 0a8 8 0 1 0 16 0 8 8 0 1 0-16 0Z" fill="" p-id="4013"></path>
</svg>