<svg t="1718542491062"
	class="icon" viewBox="0 0 1024 1024" version="1.1" xmlns="http://www.w3.org/2000/svg" p-id="1077"
	xmlns:xlink="http://www.w3.org/1999/xlink" width="200" height="200">
	<path
		d="M787.8264 288L267.0264 588 66.8664 566.88a65.44 65.44 0 0 0-39.68 9.12l-2.56 1.44a16 16 0 0 0-1.6 27.2l146.08 109.28a81.76 81.76 0 0 0 73.6 12.48l248-78.4 28.32-16-53.6 320.96a16 16 0 0 0 24.32 16.8l52.32-30.24a65.44 65.44 0 0 0 25.6-27.52l220.64-435.84 108.96-62.88a343.68 343.68 0 0 0 103.36-91.84l1.28-1.76a32 32 0 0 0-19.84-51.68l-35.2-7.04A229.12 229.12 0 0 0 787.8264 288z"
		fill="#F9E3AE" p-id="1078"></path>
	<path
		d="M985.2664 269.12L193.9064 726.08a81.76 81.76 0 0 0 48.8 0l248-78.08 28.32-16-53.6 320.96a16 16 0 0 0 24.32 16.8l52.32-30.24a65.44 65.44 0 0 0 25.6-27.52l220.64-435.84 108.96-62.88a343.68 343.68 0 0 0 103.36-91.84l1.28-1.76a32 32 0 0 0-16.64-50.56zM20.4664 580.48a16 16 0 0 0 2.56 23.68l19.52 14.72z"
		fill="#F6D397" p-id="1079"></path>
	<path d="M619.8264 384l-382.24-20a65.44 65.44 0 0 0-40.64 11.52l-38.88 26.88a16 16 0 0 0 3.52 28.8l228.8 85.76"
		fill="#F9E3AE" p-id="1080"></path>
	<path
		d="M1021.2664 282.72a48 48 0 0 0-36-30.4l-35.2-7.04a244.96 244.96 0 0 0-170.24 28.32L615.8264 368l-377.44-19.84a81.76 81.76 0 0 0-50.72 14.4l-38.72 26.56a32 32 0 0 0 7.04 56.96L352.4664 519.84l-89.6 51.68-194.4-20.48a80.96 80.96 0 0 0-49.28 10.4l-2.72 1.6a32 32 0 0 0-3.2 53.92l146.08 109.28a98.08 98.08 0 0 0 88 15.04l247.84-78.08 2.24-0.8-48 288a32 32 0 0 0 48 33.44l52.32-30.24a81.28 81.28 0 0 0 32-33.76L800.4664 487.52l104.8-60.48a357.76 357.76 0 0 0 108.16-96l1.28-1.76a48 48 0 0 0 6.56-46.56zM167.1864 416l38.72-26.72a49.76 49.76 0 0 1 30.72-8.64l328.32 17.44-176 101.6z m821.92-105.44l-1.28 1.76A325.76 325.76 0 0 1 889.2664 400l-49.6 28.64-141.6 80a16 16 0 1 0 16 27.84l36.96-20.96-197.6 389.76a49.28 49.28 0 0 1-19.36 20.48L480.4664 955.52l53.6-321.28a16 16 0 0 0-23.84-16l-26.88 16-245.44 76.48a65.92 65.92 0 0 1-59.2-10.08L32.4664 590.72l2.56-1.44a49.12 49.12 0 0 1 29.44-6.4l200.16 21.12a16 16 0 0 0 9.6-2.08l124.32-71.84 396.16-228.8A212.96 212.96 0 0 1 944.4664 276.8l35.2 7.04a16 16 0 0 1 10.24 26.4z"
		fill="#8D6C9F" p-id="1081"></path>
	<path
		d="M412.9464 576A16 16 0 1 0 384.4664 592l16 27.68a16 16 0 1 0 27.68-16zM482.2264 536a16 16 0 1 0-27.68 16l16 27.68a16 16 0 1 0 27.68-16zM551.5064 496a16 16 0 0 0-27.68 16l16 27.68a16 16 0 0 0 27.68-16zM620.7864 456a16 16 0 0 0-27.68 16l16 27.68a16 16 0 1 0 27.68-16zM690.0664 416a16 16 0 1 0-27.68 16l16 27.68a16 16 0 1 0 27.68-16zM759.3464 376a16 16 0 1 0-27.68 16l16 27.68a16 16 0 1 0 27.68-16zM828.6264 336A16 16 0 0 0 800.4664 352l16 27.68a16 16 0 1 0 27.68-16z"
		fill="#8D6C9F" p-id="1082"></path>
		   <!-- <animateTransform attributeName="transform" attributeType="XML"
                      type="translate" values="0,0;100,-50;0,0" dur="2s"
                      repeatCount="indefinite"/> -->
</svg>