<?xml version="1.0" encoding="UTF-8"?>
<svg version="1.1" xmlns="http://www.w3.org/2000/svg" width="1920" height="1080">
<path d="M0 0 C633.6 0 1267.2 0 1920 0 C1920 356.4 1920 712.8 1920 1080 C1286.4 1080 652.8 1080 0 1080 C0 723.6 0 367.2 0 0 Z " fill="#FEFEFE" transform="translate(0,0)"/>
<path d="M0 0 C0.88196045 -0.01353516 1.7639209 -0.02707031 2.67260742 -0.04101562 C11.07110655 0.015408 18.81762393 1.88510375 25.375 7.375 C29.38987086 13.04993586 29.9601069 17.26734431 29.75 24.125 C29.73420898 25.01243896 29.71841797 25.89987793 29.70214844 26.81420898 C29.53728895 33.15375271 29.08466857 39.24377478 27.375 45.375 C27.13007812 46.2825 26.88515625 47.19 26.6328125 48.125 C22.75400249 60.48227084 14.50501807 68.27239509 3.41796875 74.46875 C-2.48640991 77.15368851 -9.27827559 77.20389358 -15.625 76.375 C-20.85512383 73.79740315 -24.22739814 70.03709879 -26.9375 64.875 C-27.74004732 61.95664609 -27.76512893 59.38777198 -27.625 56.375 C-25.625 57.375 -25.625 57.375 -24.1875 59.875 C-22.81180459 62.66655483 -22.81180459 62.66655483 -19.625 63.375 C-19.57441855 56.00605185 -19.53931667 48.63714822 -19.51513672 41.26806641 C-19.50505989 38.75958585 -19.49139821 36.25111708 -19.47412109 33.74267578 C-19.44994663 30.14352512 -19.43853388 26.54452933 -19.4296875 22.9453125 C-19.41420364 21.25464157 -19.41420364 21.25464157 -19.39840698 19.52981567 C-19.39825592 18.48888763 -19.39810486 17.44795959 -19.39794922 16.37548828 C-19.393508 15.45615509 -19.38906677 14.5368219 -19.38449097 13.58963013 C-19.41336408 11.16888224 -19.41336408 11.16888224 -21.625 9.375 C-21.75 6.25 -21.75 6.25 -21.625 3.375 C-14.50261538 0.57275032 -7.56660578 0.04784365 0 0 Z " fill="#040404" transform="translate(955.625,496.625)"/>
<path d="M0 0 C2.93374777 2.29942393 4.58015977 4.58330685 6 8 C6.24291992 10.45092773 6.24291992 10.45092773 6.23046875 13.18359375 C6.22917969 14.18841797 6.22789063 15.19324219 6.2265625 16.22851562 C6.21367188 17.28748047 6.20078125 18.34644531 6.1875 19.4375 C6.18105469 20.51322266 6.17460938 21.58894531 6.16796875 22.69726562 C6.095834 30.16772042 5.8127254 37.5693678 5 45 C6.65 44.67 8.3 44.34 10 44 C9.43584703 49.92360616 7.18653966 53.81346034 3 58 C0.0625 58.375 0.0625 58.375 -3 58 C-5.03655892 56.23238691 -5.89581646 54.77623249 -6.25619507 52.09118652 C-6.34816205 49.67470012 -6.33679106 47.27722664 -6.29296875 44.859375 C-6.28872391 43.97719299 -6.28447906 43.09501099 -6.28010559 42.18609619 C-6.26333838 39.37375117 -6.22568998 36.56212774 -6.1875 33.75 C-6.17245062 31.8411562 -6.15876266 29.93230114 -6.14648438 28.0234375 C-6.11344127 23.34868111 -6.06167255 18.67446282 -6 14 C-9.9492568 14.55105909 -13.34920174 15.38935371 -17 17 C-17.04487549 17.96301025 -17.08975098 18.92602051 -17.13598633 19.91821289 C-17.30724146 23.517752 -17.4959348 27.11620773 -17.68969727 30.71459961 C-17.77089777 32.26709514 -17.84747386 33.81984016 -17.91918945 35.37280273 C-18.02357301 37.61524954 -18.14499387 39.85624894 -18.26953125 42.09765625 C-18.3119268 43.12621483 -18.3119268 43.12621483 -18.35517883 44.17555237 C-18.65209927 49.0986788 -19.88457537 52.62745954 -22 57 C-26.51219512 57.36585366 -26.51219512 57.36585366 -28.75 55.6875 C-35.28155519 46.86990049 -30.53692721 25.51292057 -30 15 C-35.80782636 16.26467106 -35.80782636 16.26467106 -41 19 C-42.0715645 22.2146935 -42.26716916 24.86212146 -42.46484375 28.2421875 C-42.58182617 30.08876953 -42.58182617 30.08876953 -42.70117188 31.97265625 C-42.85823842 34.56620135 -43.01190573 37.15995464 -43.16210938 39.75390625 C-43.24138672 40.98753906 -43.32066406 42.22117187 -43.40234375 43.4921875 C-43.46929443 44.61995605 -43.53624512 45.74772461 -43.60522461 46.90966797 C-43.99760975 49.98128892 -44.57708506 52.25565587 -46 55 C-49 57 -49 57 -52.5625 56.8125 C-56 56 -56 56 -58 53 C-58.25878906 50.8972168 -58.25878906 50.8972168 -58.265625 48.44921875 C-58.26949219 47.53277588 -58.27335937 46.61633301 -58.27734375 45.67211914 C-58.26832031 44.68719482 -58.25929688 43.70227051 -58.25 42.6875 C-58.24419922 41.17240845 -58.24419922 41.17240845 -58.23828125 39.62670898 C-58.12000434 29.02860476 -57.16820536 18.52782946 -56 8 C-57.98 8 -59.96 8 -62 8 C-61.68151851 5.02750614 -60.96374181 3.96160897 -58.875 1.75 C-55.24188119 -0.46146362 -53.19331992 -0.52416499 -49 0 C-46.125 1.25 -46.125 1.25 -44 3 C-43.3671875 5.109375 -43.3671875 5.109375 -43 7 C-42.31035156 6.55527344 -41.62070313 6.11054687 -40.91015625 5.65234375 C-35.28709894 2.26616795 -31.36500005 0.24094936 -24.77734375 1.27734375 C-23 2 -23 2 -21 5 C-17.66466817 4.34060106 -15.13810226 3.03848915 -12.1875 1.375 C-7.70468789 -0.90271749 -4.93887581 -1.67921778 0 0 Z " fill="#060606" transform="translate(1213,516)"/>
<path d="M0 0 C1.19625 -0.04125 2.3925 -0.0825 3.625 -0.125 C7 0 7 0 8.68554688 1.52954102 C10.46789159 4.87938244 10.42206393 7.94975004 10.40625 11.65234375 C10.41708618 12.38949112 10.42792236 13.12663849 10.43908691 13.88612366 C10.47328643 16.23667202 10.48892625 18.5867358 10.5 20.9375 C10.51460268 24.03041161 10.54834728 27.12224773 10.59375 30.21484375 C10.59072876 30.9201976 10.58770752 31.62555145 10.58459473 32.35227966 C10.65062717 36.71097968 11.22906951 39.58281545 14 43 C17.0957107 43.89207179 17.0957107 43.89207179 20 44 C19.75554295 48.15576993 19.34064564 50.52910749 16.875 53.9375 C14 56 14 56 10.6875 56.75 C5.46696525 55.68819632 2.65999247 52.72653778 -1 49 C-3.7845706 50.09695205 -6.41335714 51.21933236 -9.0625 52.625 C-14.16608814 54.80745545 -19.56763179 54.6582396 -25 54 C-30.53951175 51.58275851 -33.48830371 47.36382465 -36 42 C-36.65064201 38.88181602 -36.67103837 35.92539328 -36.5625 32.75 C-36.54445313 31.91807129 -36.52640625 31.08614258 -36.5078125 30.22900391 C-36.09841394 19.67266202 -33.61336682 11.48560113 -26.05859375 3.84765625 C-18.2585244 -3.15316501 -9.7922895 -4.02067516 0 0 Z " fill="#030303" transform="translate(828,518)"/>
<path d="M0 0 C1.546875 -0.061875 1.546875 -0.061875 3.125 -0.125 C6 0 6 0 8.16186523 1.54541016 C10.60772712 4.8115405 10.45722627 7.49193789 10.28515625 11.3984375 C10.27238144 12.11101715 10.25960663 12.8235968 10.2464447 13.55776978 C10.20429883 15.83109748 10.1359546 18.10248337 10.0625 20.375 C9.99424258 22.64027817 9.93225914 24.90490118 9.88926697 27.17080688 C9.86222157 28.57806004 9.82082758 29.98513631 9.76271057 31.39144897 C9.66890176 36.01371724 10.44826436 39.13456758 13 43 C16.5693717 44.44967902 16.5693717 44.44967902 20 45 C19.49697411 49.40147657 17.97554199 51.75395419 15 55 C11.96367283 56.51816358 10.41052601 56.49607651 7 56 C5.61769721 54.75982915 4.26644413 53.48468627 2.9375 52.1875 C0.70434326 50.13164421 0.70434326 50.13164421 -2 49 C-5.53713404 49.7441879 -8.44719492 51.09594385 -11.72265625 52.61328125 C-16.56702764 54.66304507 -20.86430295 55.27594958 -26 54 C-30.57612936 51.24834052 -33.91034442 47.93441536 -36 43 C-37.60090402 30.3313335 -37.25028297 16.58341601 -29.3125 6.125 C-20.88541718 -2.61809843 -11.26126775 -4.19023916 0 0 Z " fill="#040404" transform="translate(1129,518)"/>
<path d="M0 0 C5.16156455 1.99475311 7.70601164 5.3097219 9.9765625 10.19140625 C11.11669436 15.22698865 11.75535664 20.74554516 9.91796875 25.671875 C7.56615242 29.28827454 3.42769667 31.07441198 -0.640625 32.1015625 C-8.75256792 33.34122143 -15.81327903 32.94705631 -23.2734375 29.50390625 C-20.50104528 35.24373337 -17.78748364 38.62273232 -11.73046875 40.8828125 C-4.81140768 42.63182794 1.15756588 41.77494549 7.71875 39.16015625 C9.7265625 38.50390625 9.7265625 38.50390625 13.7265625 38.50390625 C14.25541262 42.10008705 13.76381298 43.44502646 11.7890625 46.56640625 C7.49956564 51.33524517 0.23945873 54.15902163 -6.05859375 54.77734375 C-13.84098305 55.01851434 -20.00411001 54.42413795 -26.2734375 49.50390625 C-28.6807225 46.69123645 -30.54380904 43.77033297 -32.2734375 40.50390625 C-32.64726563 39.9109375 -33.02109375 39.31796875 -33.40625 38.70703125 C-34.68410399 35.46059139 -34.65642609 32.25669386 -34.6484375 28.81640625 C-34.64682617 28.10250732 -34.64521484 27.3886084 -34.64355469 26.65307617 C-34.50992225 20.88657443 -33.41797902 16.41245887 -30.2734375 11.50390625 C-29.438125 10.17359375 -29.438125 10.17359375 -28.5859375 8.81640625 C-20.3402926 0.57076135 -11.58628835 -2.52827942 0 0 Z " fill="#060606" transform="translate(1071.2734375,517.49609375)"/>
<path d="M0 0 C4.09381803 2.001922 6.14111136 3.7930415 8 8 C8.55411509 11.79964631 8.36596487 13.41716706 6.3125 16.6875 C1.68432366 21.31567634 -2.30724036 22.95512067 -8.75 23.0625 C-9.8225 23.041875 -10.895 23.02125 -12 23 C-12 22.34 -12 21.68 -12 21 C-11.05125 20.2575 -10.1025 19.515 -9.125 18.75 C-5.954409 16.24493399 -4.92557092 13.97995497 -4 10 C-9.82681177 10.25389158 -13.74415528 10.61116013 -18 15 C-19.5734349 18.1468698 -19.3784817 20.534295 -19 24 C-16.74904734 26.48082494 -16.74904734 26.48082494 -13.625 28.375 C-12.52082022 29.13815405 -11.41930029 29.90516921 -10.3203125 30.67578125 C-9.76375977 31.05943848 -9.20720703 31.4430957 -8.63378906 31.83837891 C-2.10017643 36.48376577 4.9470895 41.91939484 7 50 C7.81673945 56.63961133 7.46313892 62.2281018 4 68 C-0.216617 72.54376832 -4.81947921 74.99750271 -10.99609375 75.3359375 C-12.47642961 75.35966506 -13.95697623 75.37242741 -15.4375 75.375 C-16.17548828 75.39949219 -16.91347656 75.42398438 -17.67382812 75.44921875 C-23.8431478 75.48212179 -27.33427847 73.48800676 -31.875 69.25 C-33.55903375 65.8819325 -33.54382624 62.64726133 -33 59 C-31.36312815 55.41447119 -30.31027417 54.20684945 -27 52 C-26.01 52.33 -25.02 52.66 -24 53 C-24.66 53.53625 -25.32 54.0725 -26 54.625 C-28.24143569 56.87728283 -28.24143569 56.87728283 -28.5 60 C-28.20738758 63.05474794 -28.20738758 63.05474794 -26.375 65.375 C-23.21217357 67.53903914 -21.78798913 67.58276756 -18 67 C-12.86166235 65.14504027 -8.77954086 62.8641965 -6 58 C-5.24984805 55.04308291 -5.24984805 55.04308291 -6 52 C-9.43358215 47.28999327 -13.11876081 44.26445086 -17.9375 41.0625 C-29.08266362 33.28117575 -29.08266362 33.28117575 -31 29 C-32.12472559 22.41791022 -31.3340622 16.74838311 -28 11 C-25.8125 8.4375 -25.8125 8.4375 -23 6 C-22.48050781 5.45859375 -21.96101562 4.9171875 -21.42578125 4.359375 C-15.28829789 -1.33876574 -7.94361463 -1.14750984 0 0 Z " fill="#070707" transform="translate(730,497)"/>
<path d="M0 0 C1.32 0 2.64 0 4 0 C4.33 3.63 4.66 7.26 5 11 C6.155 10.95875 7.31 10.9175 8.5 10.875 C12.94481301 10.85912567 16.73724131 11.78206895 21 13 C20.10755969 16.90442634 18.58178708 18.54454458 15.3125 20.625 C11.62878706 22.8248927 8.02777138 24.27381227 4 26 C4 34.25 4 42.5 4 51 C7.05269846 52.52634923 9.75845689 51.83794444 13.125 51.5625 C14.40632812 51.46066406 15.68765625 51.35882812 17.0078125 51.25390625 C17.99523437 51.17011719 18.98265625 51.08632813 20 51 C18.7994762 54.3775502 17.64421522 56.75368503 15.0625 59.25 C14.55847656 59.75015625 14.05445313 60.2503125 13.53515625 60.765625 C9.48161223 64.02496319 4.04436244 63.38290291 -0.8828125 63.35546875 C-4 63 -4 63 -7.25 60.6875 C-9.67313429 56.96625806 -10.12735047 54.30051761 -10.1328125 49.95703125 C-10.13474609 48.46913086 -10.13474609 48.46913086 -10.13671875 46.95117188 C-10.13285156 45.91541016 -10.12898437 44.87964844 -10.125 43.8125 C-10.12886719 42.79607422 -10.13273438 41.77964844 -10.13671875 40.73242188 C-10.12939457 35.05984298 -9.84652751 29.60992438 -9 24 C-9.61488281 23.80664062 -10.22976563 23.61328125 -10.86328125 23.4140625 C-11.67152344 23.15367187 -12.47976563 22.89328125 -13.3125 22.625 C-14.11300781 22.36976563 -14.91351562 22.11453125 -15.73828125 21.8515625 C-18 21 -18 21 -21 19 C-20.72698814 15.7238577 -20.20885506 14.23496194 -18 11.75 C-14.92391934 9.95561961 -13.90141342 9.84070436 -10.5 9.75 C-7.49507614 9.56970457 -6.41412659 9.44928828 -4.34375 7.203125 C-3.10762128 5.17644884 -2.03134563 3.13635881 -1 1 C-0.67 0.67 -0.34 0.34 0 0 Z " fill="#040404" transform="translate(766,509)"/>
<path d="M0 0 C2.4375 2.0625 2.4375 2.0625 4 4 C4.61875 3.505 5.2375 3.01 5.875 2.5 C12.37335572 -0.61921075 20.06295101 0.97228904 27 2 C25.72414356 6.98743882 23.91418193 9.65862518 20 13 C16.71480525 14.09506492 14.26336585 14.09960608 10.8125 14.0625 C9.18248047 14.04896484 9.18248047 14.04896484 7.51953125 14.03515625 C6.68808594 14.02355469 5.85664062 14.01195312 5 14 C4.98018066 14.62865967 4.96036133 15.25731934 4.93994141 15.9050293 C3.83995794 49.12635326 3.83995794 49.12635326 -1 54 C-3.88320917 54.72508429 -5.97257312 54.33638076 -9 54 C-11.63131303 50.05303046 -11.25720766 46.69956512 -11.1875 42.125 C-11.18105469 41.25327148 -11.17460938 40.38154297 -11.16796875 39.48339844 C-11.05580635 29.64465317 -10.55225969 19.82233297 -10 10 C-11.65 10 -13.3 10 -15 10 C-14.73212125 6.07111171 -14.47562903 4.45123779 -11.5625 1.6875 C-7.18104766 -1.19784666 -5.20450902 -1.16652788 0 0 Z " fill="#060606" transform="translate(1006,518)"/>
<path d="M0 0 C1.35308313 1.31328657 2.68870078 2.64499081 4 4 C6.39788436 3.78842197 7.85584361 3.07207819 10 2 C16.4032863 1.63348193 22.66983002 2.04450264 29 3 C27.18690951 8.28818061 24.67111564 11.88592291 20 15 C16.64453125 15.1953125 16.64453125 15.1953125 12.8125 15.125 C11.54019531 15.10695313 10.26789062 15.08890625 8.95703125 15.0703125 C7.49330078 15.03550781 7.49330078 15.03550781 6 15 C6.02320313 16.1859375 6.04640625 17.371875 6.0703125 18.59375 C6.47271648 48.17505054 6.47271648 48.17505054 1 55 C-0.9375 55.62890625 -0.9375 55.62890625 -3 55.5625 C-3.680625 55.56378906 -4.36125 55.56507813 -5.0625 55.56640625 C-7.8427824 54.75362208 -8.60264544 53.49281153 -10 51 C-10.328125 48.73828125 -10.328125 48.73828125 -10.25 46.3125 C-10.22679687 45.13107422 -10.22679687 45.13107422 -10.203125 43.92578125 C-10.0383301 41.55210088 -9.7997219 39.22060603 -9.51953125 36.859375 C-8.90986245 31.56143031 -8.6635906 26.26360147 -8.4375 20.9375 C-8.37272461 19.49600586 -8.37272461 19.49600586 -8.30664062 18.02539062 C-8.20178868 15.68369723 -8.09962212 13.34192071 -8 11 C-9.65 11 -11.3 11 -13 11 C-13.4375 8.875 -13.4375 8.875 -13 6 C-9.48838451 1.65373967 -5.76890099 -1.281978 0 0 Z " fill="#060606" transform="translate(862,517)"/>
<path d="M0 0 C2.68777802 -0.0544207 5.37443212 -0.09387266 8.0625 -0.125 C8.81466797 -0.14175781 9.56683594 -0.15851563 10.34179688 -0.17578125 C15.29205371 -0.21864062 19.3339203 0.30000153 24 2 C26.66972969 4.66972969 26.28625152 6.73950327 26.3293457 10.3737793 C26.32378662 11.21980713 26.31822754 12.06583496 26.3125 12.9375 C26.30758545 13.79835205 26.3026709 14.6592041 26.29760742 15.54614258 C26.09548347 26.56137989 23.73517936 35.78185817 16.14453125 44.01171875 C11.75163247 48.20069187 9.10716321 49.24403991 3 50 C2.98018066 48.8761792 2.96036133 47.7523584 2.93994141 46.59448242 C2.86317248 42.37666526 2.77457257 38.15916151 2.68261719 33.94165039 C2.64461906 32.12530764 2.60971857 30.30889708 2.578125 28.49243164 C2.35815843 14.13680918 2.35815843 14.13680918 0 0 Z " fill="#F9F9F9" transform="translate(945,510)"/>
<path d="M0 0 C0.06384394 4.66770144 0.05855635 9.33238362 0 14 C-0.01546875 15.30066406 -0.0309375 16.60132813 -0.046875 17.94140625 C-0.11648438 19.79572266 -0.11648438 19.79572266 -0.1875 21.6875 C-0.22230469 22.82574219 -0.25710938 23.96398437 -0.29296875 25.13671875 C-1 28 -1 28 -3.234375 29.86328125 C-7.5632798 31.64253449 -11.40356305 31.782867 -16 31 C-18.625 29.1875 -18.625 29.1875 -20 26 C-21.24267729 17.77717796 -19.63612831 10.04512803 -14.75 3.265625 C-10.49873985 -1.03394492 -5.57753255 -0.49602562 0 0 Z " fill="#F5F5F5" transform="translate(825,528)"/>
<path d="M0 0 C0.09589966 7.60803968 0.08873967 15.21055156 -0.25 22.8125 C-0.31960938 24.52373047 -0.31960938 24.52373047 -0.390625 26.26953125 C-1 29 -1 29 -2.734375 30.359375 C-5.22904002 31.06476304 -7.40657618 31.37029237 -10 31.4375 C-11.2684375 31.49744141 -11.2684375 31.49744141 -12.5625 31.55859375 C-15 31 -15 31 -17.28125 28.8671875 C-20.29789836 23.83486956 -19.67323126 18.68124743 -19 13 C-16.23486532 3.25989078 -9.95375555 -0.99537556 0 0 Z " fill="#FBFBFB" transform="translate(1125,528)"/>
<path d="M0 0 C0.66 0.33 1.32 0.66 2 1 C2 3.31 2 5.62 2 8 C-2.51815281 8.88277755 -6.77512694 9.10589503 -11.375 9.0625 C-13.24285156 9.04896484 -13.24285156 9.04896484 -15.1484375 9.03515625 C-16.55996094 9.01775391 -16.55996094 9.01775391 -18 9 C-14.57048529 -0.19109942 -9.14640571 -0.89843921 0 0 Z " fill="#FCFCFC" transform="translate(1068,529)"/>
</svg>
